<svg xmlns="http://www.w3.org/2000/svg" viewBox="0 0 1003 294"><path fill="none" stroke="#000" stroke-width="3" stroke-miterlimit="10" d="M33.9 227.9H1.5V1.5h32.4v226.4zM259.8 98.5H65.5V66.1h194.3v32.4zm0 64.9H65.5V131h194.3v32.4zm0 64.5H65.5v-32.4h194.3v32.4zm225.9 64.6H291.4v-32.4h161.9v-32.2H291.4V66.1h194.3v226.4zm-32.4-97v-97H323.8v97h129.5zm96.4 32.4h-32.4V66.4h32.4v161.5zm225.9 0H581.3V66.1h194.3v161.8zm-32.4-32.4v-97H613.8v97h129.4zm96.4 32.4h-32.4V66.1h194.3V228h-32.4V98.5H839.6v129.4z"/></svg>