<svg xmlns="http://www.w3.org/2000/svg" viewBox="0 0 50 50"><path d="M41.798 33.763v-18a.988.988 0 00-.887-.977l-.025-.005c-.03-.003-.057-.018-.088-.018h-30c-.032 0-.06.015-.091.018a.945.945 0 00-.189.038.941.941 0 00-.183.072.97.97 0 00-.147.099.986.986 0 00-.151.145c-.019.023-.045.035-.062.06-.019.027-.022.06-.038.088a.94.94 0 00-.119.383c-.003.033-.019.062-.019.096v18a1 1 0 001 1h30a.998.998 0 00.999-.999zm-4.296-17l-11.745 8.092-11.745-8.092h23.49zm-25.704 16V17.666l13.392 9.227a.997.997 0 001.134 0l13.474-9.283v15.153h-28z"/></svg>