<?xml version="1.0" encoding="utf-8"?>
<!-- Generator: Adobe Illustrator 24.0.2, SVG Export Plug-In . SVG Version: 6.00 Build 0)  -->
<svg version="1.1" xmlns="http://www.w3.org/2000/svg" xmlns:xlink="http://www.w3.org/1999/xlink" x="0px" y="0px"
	 viewBox="0 0 1000 350.3" enable-background="new 0 0 1000 350.3" xml:space="preserve" width="115" height="39">
<g id="Legioner">
	<g id="Zig-zags">
		<path fill="#F7931E" d="M94.3,94.9l0.3,3.4l-8.4,3.4L73.9,81.6c4.4-1.1,8.8-2.3,13.2-3.4c4.8-0.9,9.6-1.8,14.5-2.7
			c2.5-0.3,4.9-0.6,7.4-0.8l1.3,9l1.2,9.3l0.6,5.3l8.7-1.7l9.6-0.5l0.5-10.9L124,85l-0.1-3.7l10.7,0.5L134,99.4l-7,0.2l-7.7,0.9
			l-5.5,0.9l-4.7,1.3l-0.8-8l-1.4-8.9l-0.9-7.6L99,79l-9.6,1.6l-6.9,1.5l-3.5,1.3l2.3,4.5l3.1,5.1l2.5,4.5L94.3,94.9z"/>
		<path fill="#F7931E" d="M102.9,96.6l-1.8-11.8c-1.9,0.3-3.7,0.7-5.6,1c-2.1,0.5-4.1,1-6.2,1.6c-0.3,0.1-0.7,0.2-1,0.4
			c0.2,0.5,0.4,1.1,0.6,1.6c0.3,0.6,0.5,1.1,0.8,1.7l8.6-2.3l0.6,3.7l0.7,5.1l0.6,4.3l-11.7,4.9l1.7,2.7l13.5-4.7L102.9,96.6z"/>
		<polygon fill="#F7931E" points="125.9,89.3 125.7,92 118.9,92.7 117.2,92.9 116.3,86.3 115.6,80.7 114.9,74.5 124.6,74.2
			136.2,74.7 143.9,75.8 143.3,82.8 142.7,90.4 142.3,96.7 149,97.2 154.9,98.6 156.4,99.2 159.4,90.7 159.6,89.6 154,87.6
			154.9,84.8 161.6,87.2 163.6,88 161.3,94.5 158.5,102.5 152.3,100.6 146.4,99.8 138.9,99.3 139.9,92.3 140.3,83.6 140.7,78.1
			132.1,77.1 124.5,76.8 117.9,77 118.8,84.4 119.4,89.7 		"/>
		<polygon fill="#F7931E" points="153.8,94.7 155.1,92 149.5,90.6 149.6,89.5 150.2,84.2 150.9,80 159,82 165,84.2 168.9,85.7
			166,92.3 163.3,99.1 161.5,103.1 169.8,106.9 175.5,109.8 178.1,111.4 181.8,105.2 184.3,100.6 185.3,98.8 181.8,96.4 178.3,94
			176.5,96.4 181.2,99.5 178.8,103.5 176.9,107.2 172.8,104.9 167.9,102.8 165.2,101.7 170,90.7 171.8,86.8 173,84.2 164.5,80.7
			156.5,78.2 149.7,76.6 148.3,76.4 147.6,80.7 146.9,86 146.3,90.5 145.8,93 150,93.7 		"/>
		<polygon fill="#F7931E" points="177,100.7 175.7,102.9 173.2,101.4 169.6,99.7 169.9,98.5 171.3,95.5 174.6,87.9 175.5,85.8
			181.5,89.1 186.8,92.5 190.8,95.2 193.2,97.4 190.3,102.1 187.9,105.9 186.2,108.3 184.2,111.7 187.2,114 190.5,116.5
			192.1,117.9 197.4,112.6 195.2,109.9 196.7,107.8 200,111 201,112.4 198,115.6 194.8,118.8 192.3,121.2 189.8,119 186.7,116.8
			183.3,114.1 180.7,112.5 183.7,107.8 187.4,102.1 189.8,98.7 190.1,97.9 186.3,95.3 182.4,92.6 178.7,90.4 176.7,89.3 175.5,91.7
			173.4,95.6 172.6,98.1 174.5,99.1 		"/>
		<polygon fill="#F7931E" points="193.8,112.4 192,114.1 189.9,112.2 187.9,110.6 189.3,108.7 192,105.1 194.8,101.1 196.2,99.9
			199.6,103.1 202.8,106.4 205.3,109.1 207.8,111.8 208.3,112.8 205.6,115.5 203.1,117.9 201.2,119.7 199.2,121.8 198.1,123
			199.7,125 202.1,127.4 203.8,129.2 204.5,130.4 206.6,128.7 208.6,127.2 209.4,126.7 207.8,124.3 207.1,123.4 208.8,122
			209.8,122.8 211.3,124.7 212.6,126.5 212.8,127.4 210,129.4 207.8,131.1 205.4,133 204.2,133.9 201.7,130.5 198.7,127.5
			196.6,125 194.6,123.1 195.5,122 196.9,120.6 199.7,117.7 202.5,115.1 204.9,112.9 203.4,110.5 201.5,108.4 199.4,106.2
			197.8,104.5 196.7,103.7 195,105.3 193.5,107.2 191.7,109.5 191.5,110.1 		"/>
		<polygon fill="#F7931E" points="206.2,126 205,127.1 203.8,125.8 202.4,124.1 201.4,123.1 203.4,121.2 206,118.8 208.1,117
			210.1,115.4 212.1,118.1 213.8,120.5 215.2,122.5 216.5,124.6 217.8,126.3 218.4,127.8 217.7,129.2 215.3,130.9 213.7,132.1
			211.2,133.9 209.4,135.1 208.6,136.1 210.5,138.7 212.6,141.9 213.6,143.2 215.8,141.7 218.2,140.3 216.5,138.2 216.3,137.7
			218,136.4 219.9,138.8 221,140.8 218.4,142.6 215.7,144 213.2,145.7 211.1,143.2 208.6,139.9 206.7,136.8 205.6,135.4
			210.4,131.8 213.2,129.8 216.2,127.8 213.3,123.5 212,121.4 210.3,119 209.5,118.5 206.7,120.9 204.3,123 206.5,125.7 		"/>
		<polygon fill="#F7931E" points="225.4,151.9 224.1,149.4 222.2,150.4 223.5,152.8 221.6,153.5 219.2,154.6 218.7,153.5
			217.6,151.2 215.9,148.1 216.6,147.6 219.6,146.3 222.5,144.7 225.7,142.9 225.5,141.7 224.2,139.2 222.6,136 220.8,132.4
			219.7,130.7 217.5,132 215.2,133.5 211.5,136.2 212.8,138.1 214,140.1 215.4,139.2 214.3,136.6 216.1,135.4 219,133.6
			219.9,135.7 221.2,138 223.4,142.4 222.1,142.7 219.6,144.1 217.2,145.3 213.4,147 214,148.7 216.1,152.7 218.4,157 219.8,156.6
			222.7,155.4 226,153.7 		"/>
		<polygon fill="#F7931E" points="221.5,151.5 219.7,152.4 218.4,149.6 218,148.7 220.2,147.6 223.5,145.9 225.7,145 227.7,148.9
			229.2,153 229.9,155.7 226.8,157.5 223.2,158.8 221,159.6 222.5,163.3 223.3,166.3 227.2,165.2 226.2,162.5 228,161.7
			229.7,166.5 224.7,168.1 222.5,169 220.8,164.6 218.5,158.7 221.7,157.3 227,155.1 227.7,154.9 226.2,151.5 225.4,148.5
			224.8,147.5 222.2,148.6 220.5,149.5 		"/>
		<polygon fill="#F7931E" points="225.9,164 224.2,164.7 223.2,162.5 222.5,160.5 226.3,158.9 228.8,158.1 230.1,157.8 230.7,159.4
			231.4,161.8 232.1,164.6 232.6,166.6 230.9,167.2 229.9,164.6 229.2,161.3 228.8,160.2 226.3,160.8 225,161.6 		"/>
	</g>
	<g id="Helmet">
		<linearGradient id="Face_1_" gradientUnits="userSpaceOnUse" x1="32.913" y1="245.0836" x2="217.1306" y2="245.0836">
			<stop  offset="0" stop-color="#FF3FCA"/>
			<stop  offset="1" stop-color="#FF9715" stop-opacity="0.8"/>
		</linearGradient>
		<path id="Face" fill="url(#Face_1_)" d="M216.5,292.4c-0.4-0.1-0.7,0.1-1.6,0.6c-0.4,0.2-1.5,0.7-2.2,0.9c-1,0.2-2-0.3-3.1-1.1
			c-2.5-1.6-3.7-2.4-5.2-4c-1.9-2.1-2.9-3.9-4.5-6.8c-1-1.8-2.2-4.2-3.4-7.6c-0.3-0.9-1.4-4.1-2.1-8.5c-0.3-1.7-0.7-4.4-0.6-7.8
			c0.1-3,0.1-5.4,1.2-8.2c0.6-1.6,1.4-2.7,2.2-4c1-1.6,2-3.2,3.7-4.8c0.9-0.8,1.8-1.6,3.8-3.5c0.3-0.3,0.5-0.5,0.7-0.7
			c-5.8-2.9-10.4-5.8-13.8-8c-3-2-12.3-8.1-18.8-15c-3.5-3.7-6.8-8.1-6.8-8.1c-0.7-1-1.3-1.8-1.7-2.4c-4,0.3-9.7,0.3-16.4-0.7
			c-3.6-0.6-11.6-2.1-25.2-8.9c-15.6-7.8-26.4-16.4-36.8-24.7c-7.1-5.7-14.6-12.3-16.7-14.2c-6.5-5.8-11.9-10.9-15.9-14.8L51.6,150
			c-0.5,2.8-1.2,6.5-2.1,10.9c-1.3,6.9-2.4,13.4-2.5,13.9c-1.1,6.2-1.3,7.5-2,11.2c-0.7,3.9-0.8,4-1.7,8.3
			c-0.3,1.4-0.8,4.2-2.7,14.9c-1.3,7.4-5.2,28.5-5.4,29.8c-0.1,1.1-0.1,2,0,2.6c1-1,2.4-2.5,3.8-4.5c0.5-0.7,1.8-2.6,3.6-7.1
			c2.9-7.1,4.3-13.4,4.7-16c0.1-0.4,0.3-1.6,0.6-3.4c0.3-1.5,0.5-2.7,0.9-4.4c0.9-4.4,1.4-6.6,1.6-7.1c1.2-2.7,3.1-4.3,3.8-4.9
			c1.9-1.6,3.8-2.4,5-2.8c3.3-1.3,6.2-1.3,8.9-1.3c1.2,0,3.3,0,7.7,0.7c1.7,0.2,5.8,0.9,13.8,2.8c3.2,0.8,6.5,1.4,9.8,2.3
			c0,0,8.5,2.4,10.3,0.4c0.1-0.1,0.4-0.5,1-0.7c0.5-0.2,0.9-0.2,1.2-0.1c-0.1,1.7-0.5,4.2-1.7,6.9c-0.3,0.7-1.1,2.5-2.9,4.7
			c-4.6,6.1-10.7,9.2-11.3,9.5C89.1,220,83,220,81.4,220c-5.1-0.1-8.9-1.5-11.5-2.5c-4.4-1.6-6.7-2.5-7.7-3.9
			c-0.2-0.3-1.1-1.5-2.5-1.9c-0.2-0.1-1.2-0.3-2,0.2c-0.7,0.5-0.9,1.2-1,1.7c-0.7,2.7-1,4-0.9,5.5c0.1,0.7-1.2,7.7-3.7,21.5
			c-2.5,13.7-2.4,12.6-3.9,21.2c-0.8,4.5-0.8,4.5-4.9,28.3c-2,11.2-1.9,11.2-2.6,14.8c-2.2,13-3.4,19.6-3.6,20.8
			c-1.2,7.8-1.9,13-2.9,16.4c-0.1,0.4-0.6,2-0.9,4.1c-0.2,1.8-0.2,3.3-0.2,4.1c1.7-2.2,4.2-5.3,7.2-8.9
			c10.4-12.1,19.7-20.3,25.8-25.8c7.8-6.9,14-11.7,19.1-15.6c6.2-4.8,9.5-7.1,10.6-7.8c5.2-3.5,9.9-6.8,16.3-10
			c1.7-0.9,7.1-3.4,18-8.4c2.6-1.2,4.6-2.1,6.7-4.2c4.2-4.1,5.3-9.2,5.7-10.9c0.4-1.8,0.4-3.6,0.4-7.1c0-3.4-0.1-5.2-0.5-12
			c-0.3-4.4-0.5-8.6-0.1-13.3c0.1-1.2,0.4-3.7,1.7-6.4c0.4-0.8,1-2,2.1-3.2c2-2.2,4.2-3,5.5-3.4c1.6-0.6,4-1.5,7.1-0.8
			c0.5,0.1,2.5,0.6,4.5,2.2c0.7,0.6,1.9,1.6,2.9,3.4c1.2,2.2,1.4,4.2,1.5,5.8c0.1,2.2-0.1,3.9-0.7,7c-0.4,2.3-0.7,3.4-1.8,7.6
			c-1,4.1-1.5,6.1-1.8,7.4c-0.8,3.7-1.4,6.6-1.6,10.4c-0.2,3.4,0.1,5.3,0.3,6.3c0.4,2.1,0.9,3.7,1.3,4.7c0.3,0.9,1.5,4.2,3.3,6.8
			c1.8,2.7,4.7,4.5,10.2,8.1c2.9,1.9,6.5,4,10.9,6.2c3,1.5,5.1,2.4,8.9,4c0,0,5.2,2.2,12.4,4.1c0.3,0.1,2.2,0.5,4.4,0.2
			c0.3,0,1.4-0.2,2.6-1c0.5-0.3,1-0.7,1.2-1.3C217.3,293.5,217,292.6,216.5,292.4z M102.1,193.3c-1.8,0-3.2-0.1-4.8-0.4
			c-3.4-0.5-5.7-1.2-8.6-2c-5.3-1.5-7.9-2.2-10.3-2.6c-4.5-0.8-7.7-0.7-12.2-0.6c-1.8,0-3.6,0.1-5.7,0.8c-0.8,0.2-2.4,0.8-4.3,2
			c-1.2,0.8-2.4,1.9-4.1,3.3c-0.4,0.3-0.7,0.6-0.9,0.8c-0.5-1.4-1.1-3.4-1.4-6c-0.8-6.1,0.5-10.9,1.4-14c0.5-1.8,1.4-4.4,2.8-7.3
			l-0.1,0.6c-0.5,4.8-0.7,8.4-0.7,9.8c0,1.6,0.3,2.6,0.5,3.2c0.1,0.2,0.1,0.3,0.1,0.4c2.2-0.9,4.2-1.2,5.7-1.3
			c2-0.1,3.6,0.1,5.8,0.4c0.7,0.1,2.7,0.4,5.8,1.2c2.3,0.6,3.6,1.1,6.8,2.2c2.9,1,5.8,1.9,8.7,2.9c5.6,1.9,7,2.3,9.2,2.9
			c2.9,0.8,4.4,1.2,6,1.3c1.5,0.1,3.4,0.1,7.3,0c0.9,0,1.7,0,2.2,0C107.4,192.9,104.1,193.3,102.1,193.3z M93.8,289.3
			c-8.7,5.5-14.1,9.6-15.4,10.6c-6.5,5-11,9.3-18.4,16.2c-1.2,1.1-7.7,7.3-12.9,12.7c-1,1-3.8,4.1-7.2,7.7c-0.7,0.8-1.3,1.4-1.7,1.9
			c3.2-17.9,5.7-32.4,7.4-42.2c2-11.8,3.9-23.2,7-41.4c5.2-30,5.6-30.8,5.7-30.8c0.3,0.1-1.9,13-4,34.8c-0.6,5.9-1.6,17.3-2.9,30.4
			c-0.8,8.2-1.1,10.4-1.5,13c-1.1,7.1-2.3,11.4-1.7,11.6c0.5,0.2,2.3-3.2,3.4-6.5c2.2-6.2,2-11.1,2.4-11.1c0.3,0,0.7,3.5,0.4,7.5
			c-0.3,3.4-1,5.5-0.6,5.6c0.4,0.2,2-2.5,3.1-5.4c2.4-6.2,2-11.5,2.3-11.5c0.2,0,0.6,3.1,0.5,6.8c-0.1,4.2-0.7,6.3-0.3,6.5
			c0.5,0.2,2.1-3.1,3.3-6.4c1.9-5.6,1.9-9.9,2.2-9.9c0.3,0,0.6,4.2,0.2,8.9c-0.2,2.5-0.5,3.8-0.2,3.9c0.5,0.2,2.4-3.5,3.6-7.4
			c1.6-5.1,1.4-8.8,1.8-8.8c0.3,0,0.9,4,0.3,8.5c-0.3,2.6-0.9,4.4-0.7,4.5c0.4,0.1,1.7-2.6,2.4-4.3c0.9-2.2,1.5-4,1.7-5.1
			c1-3.9,1-6,1.2-6c0.4,0,1.2,4.7,0.2,9.7c-0.3,1.3-0.6,2.5-0.5,2.6c0.4,0.1,2.4-4.4,2.6-4.8c1-2.2,1.5-3.3,1.9-4.9
			c0.7-2.9,0.5-4.9,0.7-4.9c0.3,0,0.6,3,0.6,5.8c0,1.2,0,2.1-0.2,3.4c-0.3,1.7-0.8,2.7-0.6,2.8c0.2,0.1,1-1.1,1.6-2.1
			c0.2-0.4,0.9-1.6,1.8-4.2c0.4-1,0.7-2.2,1.1-3.7c0.7-2.8,0.7-4.5,0.9-4.5c0.2,0,0.4,2.9,0.3,5.7c-0.1,1.4-0.1,2.4-0.5,3.9
			c-0.3,1.4-0.7,2.3-0.5,2.4c0.1,0.1,0.6-0.7,1.7-2.4c1.6-2.4,1.7-2.3,2-2.9c0.7-1.4,0.9-2.6,1.1-4.1c0.4-2.6,0.2-4.5,0.4-4.5
			c0.2,0,0.4,1.4,0.5,1.7c0.2,1.2,0.6,3.2,0.1,5.7c-0.5,2.4-1.4,3.6-1.2,3.8c0.3,0.2,1.6-1.2,2.5-2.8c0.3-0.5,1.5-2.4,2.4-6
			c0.7-2.7,0.7-4.3,0.8-4.3c0.2,0,0.5,3.3-0.2,7c-0.4,2-1,3.2-0.7,3.4c0.4,0.2,1.7-1.5,2.6-3.1c0.3-0.5,0.8-1.6,1.4-3.6
			c1-3.4,1-5.8,1.2-5.8c0.3,0,0.4,1.9,0.5,2.3c0.1,1.1,0.2,2.8-0.3,4.9c-0.6,2.3-1.6,3.5-1.4,3.6c0.2,0.2,1.5-1,2.3-2.2
			c1.1-1.4,1.6-2.7,1.7-3c1.4-3.5,1-6.6,1.2-6.6c0.2,0,0.4,1.3,0.5,2.2c0.1,0.9,0.1,2.6-0.3,4.8c-0.3,1.6-0.6,2.1-0.4,2.2
			c0.3,0.2,2.2-1.9,3.3-4.6c1.3-3.2,1-5.9,1.3-5.9c0.2,0,0.6,2,0.2,4.3c-0.4,2.8-1.5,4.2-1.2,4.4c0.4,0.3,2.8-1.7,4-4.6
			c1-2.6,0.6-4.7,0.9-4.7c0.3,0,1.2,2.6,0.4,5.2c-0.4,1.4-1.3,2.5-1,2.7c0.2,0.2,0.9-0.4,1.1-0.6c2-1.6,2.8-3.7,2.9-4
			c0.8-2.2,0.6-3.9,0.8-3.9c0.1,0,0.5,1.6,0.2,3.4c-0.3,1.9-1.1,3-0.9,3.2c0.2,0.2,1-0.5,1.5-1c0.7-0.6,1.4-1.3,2-2.3
			c1.1-1.9,0.8-3.7,1-3.7c0.2,0,0.6,1.7,0.1,3.4c-0.3,1.1-0.9,1.7-0.7,1.9c0.3,0.2,1.4-0.4,2.1-1.1c0.6-0.6,1-1.2,1.3-1.7
			c0.3-0.5,0.7-1.3,1-2.4c-0.2,1.3-0.4,2.5-0.7,3.8c0.5-0.3,1.3-0.7,2.1-1.4c1.3-1.2,1.9-2.5,2.1-2.5c0.1,0-0.1,0.6-1.1,2.8
			c0.2,0,0.7-0.1,1.1-0.2c0.8-0.2,1.2-0.4,2-0.7c0.3-0.1,0.8-0.3,1.5-0.4C114.2,277.2,102.2,284,93.8,289.3z M176,221.3
			c1.8,1.5,8.5,7,18.3,12.9c2.2,1.3,4,2.4,5.3,3.1c-0.1,0.1-0.3,0.3-0.5,0.6c-1.4,1.5-2.6,3-3,3.4c-0.9,1.1-2.5,2.9-3.4,5.2
			c-1.4,3.4-0.9,6.3-1.1,6.3c-0.3,0-1.3-5.1,0.1-9.2c1-2.8,1.6-4.3,1.6-4.3c0.6-1.5,0.9-2,0.8-2.1c-0.3-0.2-3,2.3-4.5,5.8
			c-0.7,1.6-1,3.1-1.1,4.1c-0.5,2.5-0.4,4-0.5,4c-0.2,0-1.1-4.2-0.1-8.9c0.9-4.4,3.1-6.9,2.7-7.1c-0.4-0.3-3.8,2.7-5.3,7.2
			c-1.1,3.5-0.6,6.4-0.9,6.5c-0.3,0-1.1-2.9-0.7-6.4c0.5-5.4,3.4-8.8,3.1-9c-0.4-0.2-3.5,2.6-5,6.9c-1.3,3.6-0.8,6.4-1.1,6.4
			c-0.3,0-1-3.5-0.5-7.3c0.4-3.3,1.5-5.5,1.7-6c0.8-1.7,1.6-2.5,1.5-2.6c-0.2-0.1-2.8,2.3-4.5,5.8c-0.9,1.7-1.3,3.3-1.4,4.1
			c-0.5,2.2-0.4,3.7-0.5,3.7c-0.1,0-0.5-3.2,0-7.1c0.2-1.9,0.4-3.5,1.2-5.4c0.7-1.8,1.6-2.9,1.4-3c-0.2-0.2-1.8,1.4-3,3.2
			c-1.4,2.1-2.1,3.9-2.2,4.5c-0.9,2.8-0.7,5.1-0.9,5.1c-0.2,0-0.3-1.9-0.2-4c0.1-1.7,0.2-4.2,1.1-7.1c0.9-2.6,2-4,1.8-4.2
			c-0.3-0.2-2.2,2-3.8,4.4c-1.7,2.7-2.3,4.9-2.4,5.4c-0.5,2.1-0.4,3.3-0.5,3.3c-0.2,0,0.2-8.2,1-10.8c0.2-0.5,0.4-1.1,0.4-1.1
			c0.4-0.7,0.8-1.6,1-2.6c1-4.6-1.8-8.6-2.5-9.5l-0.8-1.3C171.3,217.3,174,219.6,176,221.3z M199.2,288.9c-2.7-1.1-6.1-2.6-10-4.4
			c-5.4-2.6-8.7-4.5-10.4-5.5c-6-3.6-7.8-5.4-8.9-6.7c-1-1.2-2.4-2.8-3.4-5.4c-1-2.5-1.1-4.5-1.2-7.4c-0.2-3.9,0.1-7.7,0.4-7.7
			c0.2,0,0.2,1.4,0.7,4.2c0.2,0.9,0.8,4.1,2,7.6c1.1,3.1,2.6,6.1,2.9,6c0.2-0.1-0.8-2.6-1.4-6.7c-0.7-4.6-0.5-8.6-0.2-8.7
			c0.2,0,0.3,2.1,1.2,5.7c0.7,2.6,1.4,4.5,2.2,6.5c0.7,1.8,2.1,5.3,2.4,5.2c0.2-0.1-0.3-1.5-0.8-4.2c-0.6-3.1-0.7-5.5-0.8-6.9
			c-0.1-2.3-0.1-4.8,0-4.8c0.2,0,0.2,2.3,0.9,5.7c0.6,3,1.5,5.1,2.3,7.3c0.9,2.4,2.1,5,2.3,5c0.2-0.1-0.9-2.4-1.2-6.2
			c-0.1-1-0.1-2.3,0-5c0-2.2,0-3.8,0.2-3.8c0.2,0,0.2,2.6,1,6.4c0.1,0.5,0.6,2.8,1.7,5.7c0.9,2.5,2.1,5.1,2.2,5c0.1,0-0.3-1-0.7-2.6
			c-0.2-1.1-0.5-2.5-0.5-7.5c0-3.1,0-4.7,0.2-4.7c0.3,0,0.5,4.7,2.5,10.8c1.2,3.6,2.5,6.4,2.8,6.3c0.3-0.1-1.2-3.7-1.5-9.2
			c-0.2-3.2,0-6.2,0.3-6.2c0.4,0,0.5,5.6,3.2,12.9c1.1,2.9,2.4,5.4,2.5,5.4c0.1,0-0.4-1.3-0.7-3.5c-0.2-1.4-0.1-1.6-0.2-3.8
			c-0.2-2.7-0.4-3-0.6-5.6c0-0.5-0.2-3.8,0-3.8c0.2,0,0.5,1.9,1.1,4.7c0.6,2.8,1.4,6.1,2.9,9.8c1.1,2.7,2.2,4.7,2.8,5.8
			c1,1.7,2,3.2,2.8,4.3L199.2,288.9z"/>
		<linearGradient id="Visor_1_" gradientUnits="userSpaceOnUse" x1="54.2061" y1="152.1826" x2="187.3738" y2="152.1826">
			<stop  offset="0" stop-color="#FF15B1"/>
			<stop  offset="1" stop-color="#FFB82A" stop-opacity="0.8"/>
		</linearGradient>
		<path id="Visor" fill="url(#Visor_1_)" d="M187.3,171.3c-0.1-2.1-0.3-5.3-1.8-9.2c-2.2-5.6-5.7-8.8-6.6-9.6
			c-0.9-0.8-3.2-2.7-6.5-4.1c-1.9-0.8-5.4-2.3-9.8-1.9c-1.3,0.1-2.3,0.3-3.6,0.7c-3.3,0.8-6.2,1.5-8.8,3.6c-3.8,3-4.9,7.2-5.1,8.1
			c-0.3,1.3-1.2,5.2,0.8,9.5c1.9,4,5.2,5.8,6.4,6.5c1.5,0.8,4.9,2.6,8.7,1.5c0.6-0.2,2.4-0.7,3.9-2.3c0.4-0.4,2.4-2.5,2.3-5.6
			c0-0.5-0.1-2.5-1.4-4.2c-0.1-0.1-0.2-0.2-0.3-0.3c0,0.3,0.4,3.7-2.1,5.9c-2.3,2.1-5.2,1.6-6.1,1.4c-0.7-0.1-3-0.5-4.7-2.5
			c-2.2-2.6-1.7-5.8-1.5-7c0.6-3.7,3-5.9,3.5-6.4c2.9-2.5,6.2-2.6,7.7-2.6c3-0.1,5.2,0.9,6.4,1.4c0.8,0.3,3.6,1.6,6.1,4.5
			c0.6,0.7,2.6,3,3.7,6.7c1.9,6.2,0,11.4-0.4,12.5c-2.5,6.4-7.6,9.4-9.1,10.3c-5.9,3.3-11.7,2.7-14.5,2.3c-2-0.3-7.8-1.2-16.8-8
			c-6.3-4.8-10-9.3-17.1-18.2c-4.1-5.1-9.9-12.8-16.5-23c-0.9-1.4-2.5-3.9-9.2-15.4c-5.3-9.1-9.7-16.6-12.7-21.7l-1.6,1.9
			c-3.4,3.9-6.1,7-7.8,9c-6.3,7.4-10.1,12.1-17.2,20.1c-0.6,0.6-1.1,1.2-1.3,1.5c1,1,2.4,2.4,4.2,4.1c2.2,2.1,9.2,8.8,18.6,16.7
			c11.9,10,20.7,17.2,33.5,25.4c0,0,16.4,10.4,32.4,15.4c2.1,0.7,8,2.4,15.5,2.4c4.8,0,7.6-0.7,9.2-1.2c4.5-1.3,7.5-3.4,8.5-4.1
			c2.5-1.8,4.1-3.7,4.8-4.5c1.7-2.1,2.7-3.9,3.4-5.2c0.7-1.3,1.7-3.2,2.4-5.8C187.5,176.2,187.4,173.4,187.3,171.3z M147.8,157.1
			c-0.3,0.8-1.3,3.9-0.9,6.9c0.1,0.6,0.4,2.4,0.6,3.6c0.1,0.4,0.1,0.8,0.2,1c-0.3-0.4-0.6-0.9-1-1.6c-1-2.1-1-4.1-1-5.2
			c0-0.9,0.1-2.6,0.9-4.4c0.9-2.2,2.4-3.8,2.6-3.6C149.3,153.8,148.5,155,147.8,157.1z M108.2,178.7c-5.1-3.4-8.5-6-13.4-9.9
			c-2.5-2-12-9.4-20.6-17.6c-3.6-3.4-4.5-4.6-7.6-7.2c-1.1-0.9-3.2-2.7-5.8-5.3c-0.9-0.9-1.6-1.8-2.1-2.3l21.9-25.1l-10.6,17.2
			l-5.2,7.5v0.2c1.7,2.2,4.2,5.2,7.4,8.7c5.4,6,9.9,10,15,14.6c5.1,4.6,8.8,7.6,14.3,12.1c6.3,5.2,15.6,11.5,18.4,13.4
			c1.5,1,2.6,1.9,3.4,2.5C119.4,185.4,114.1,182.6,108.2,178.7z M184,181.3c-0.6,2.8-1.9,4.7-3.1,6.5c-0.9,1.3-2.5,3.5-5.2,5.7
			c-0.7,0.5-4,3.1-9.2,4.4c-4.2,1.1-7.6,0.9-10.4,0.7c-0.7,0-4.2-0.3-8.8-1.6c-4.4-1.3-7.7-2.9-7.7-3.1c0.1-0.2,3.8,1.6,9.5,2.6
			c1.8,0.3,4.9,0.8,8.9,0.7c3.1-0.1,7.2-0.2,11.9-2.4c3.8-1.7,6.4-4,7.7-5.3c4.1-4.1,5.9-8.6,6.6-11.1
			C184.3,179.1,184.3,180.1,184,181.3z"/>
		<linearGradient id="Head_1_" gradientUnits="userSpaceOnUse" x1="92.6939" y1="168.5531" x2="221.3033" y2="168.5531">
			<stop  offset="0" stop-color="#E62AFF"/>
			<stop  offset="1" stop-color="#FFAC2A"/>
		</linearGradient>
		<path id="Head" fill="url(#Head_1_)" d="M220.2,174.8c-0.3-1.6-1-5.8-2.6-11c-0.7-2.4-2-6.2-4-10.6c-4.8-10.5-10.6-17.5-12.5-19.6
			c-4.5-5.3-8.6-8.6-11.1-10.7c-4-3.3-11.6-9.4-23.2-14c-2-0.8-8.5-3.3-17.4-4.8c-6.7-1.1-12-1.2-14.4-1.2c-1.1,0-6.5,0-13.6,1.1
			c-5.4,0.8-9.5,1.9-11.3,2.4c-5.5,1.5-9.4,3.2-10.4,3.6c-2.9,1.2-5.2,2.4-7,3.4l6.1,11.5c6.3,10.3,12.1,19.1,16.9,26.2
			c0,0,8.1,11.9,20.5,25.3c1.4,1.5,4.5,4.8,9.6,7.5c2.2,1.2,6.2,3.2,11.6,3.4c2.2,0.1,5.9,0.1,9.9-1.9c1.3-0.7,4-2.1,6-5.2
			c1.9-2.9,2.2-5.6,2.3-7.3c0.3-3.5-0.4-6.1-0.6-6.6c-0.4-1.2-1.1-3.6-3.2-5.8c-0.7-0.8-4.3-4.4-9.4-4.3c-1.1,0-3.4,0.1-5.4,1.7
			c-0.5,0.4-2.6,2.1-2.9,5c-0.1,0.9-0.3,3.2,1.3,4.6c1.2,1.1,3.2,1.5,4.8,0.6c1.4-0.9,1.7-2.5,1.7-2.8c0.3-1.9-0.9-3.6-1.6-4.4
			c-0.2-0.3-0.4-0.5-0.5-0.6c0.7-0.2,3.3-0.8,6,0.5c2.4,1.2,3.4,3.1,3.8,3.8c1.7,3.2,0.8,6.3,0.5,7.4c-0.3,1.2-1.3,3.9-3.8,5.8
			c-3.6,2.9-8,2.4-9.9,2.2c-6.5-0.7-10.4-5.2-11.1-6c-3.5-4.2-3.9-8.8-4-10.2c0-0.7-0.2-3.5,0.9-6.9c0.4-1.3,1.7-5.3,5.5-8.6
			c4.9-4.3,10.7-4.5,13.9-4.6c1.5-0.1,6-0.1,11.3,2.1c6.5,2.6,10.2,6.9,11.4,8.3c0.8,0.9,4,5.1,5.5,11.4c0.3,1.2,1,4.6,0.7,9.1
			c-0.4,5.7-2.2,9.9-3.2,11.9c-0.6,1.3-3.4,6.6-9,11c-1.5,1.2-4.2,3.3-8.4,4.5c-0.9,0.3-1.6,0.4-2.2,0.6c1.2,1.6,2.8,3.8,4.8,6.2
			c2,2.3,4.6,5.4,8.6,8.7c0.5,0.5,2.8,2.1,7.3,5.3c5.9,4.3,6.6,4.8,7.5,5.3c4.5,3,7,4.3,9.4,5.3c1.2,0.5,2.3,0.9,3,1.1
			c1.4-2.3,3-5.1,4.5-8.4c2.3-4.8,3.6-8.7,4-10.1c0.4-1.3,2.2-6.9,3.3-14.6c0.8-5.7,0.9-10.2,0.9-11.8
			C221.4,182.1,220.5,176.6,220.2,174.8z M103.9,119.1c0.6,1.7,2.1,5.5,4.8,10.9c2.1,4.3,3.9,7.4,6.5,11.9c1.2,2,2.4,4.2,4.3,7.2
			c1.2,1.9,1.8,2.8,3.3,5.1c1.7,2.7,3.1,5,4,6.4c-0.8-0.9-2-2.2-3.3-3.9c-2.6-3.2-4.3-5.8-5.8-7.9c-6.9-10.2-12.1-19.4-12.1-19.4
			c-1.6-2.9-3.7-6.7-6-11.2l-1.7-3.1c1.6-0.8,3.9-1.9,6.7-3c3-1.2,7.3-2.9,13-4.1c2.8-0.6,6.5-1.2,10.9-1.4
			c-0.8,0.1-1.9,0.3-3.2,0.7c-2.6,0.6-4.3,1.4-6.3,2.2c-8.4,3.4-8.3,3.2-10.4,4.2c-2.4,1.2-4.2,2.3-5.5,3.1
			C103.2,117.3,103.5,118.1,103.9,119.1z M217.3,190.9c-0.1,2.4-0.2,6.4-1,11.6c0,0-1.2,7.5-4.9,17.3c-0.7,1.8-1.4,3.6-2.5,5.5
			c-0.9,1.6-1.7,2.9-2.3,3.8c-4.9-2.6-8.9-5.1-11.9-7.1c-2.8-1.8-6.8-4.5-11.6-8.6c-5.2-4.4-8.8-8.4-8.7-8.5
			c0.1-0.1,2.7,2.5,7.7,6.6c3.6,3,5.7,4.5,8.5,6c1.6,0.8,2.9,1.4,4,1.7c1.3,0.5,4.5,1.6,8.8,2.1c0.5,0.1,1,0.1,1.2,0.1
			c1.1-2,2.5-4.7,3.8-8c2.6-6.4,4-12,4.8-15.9c0.3-1.3,1.3-6.6,1.5-13.7c0.1-3,0.2-6.4-0.3-10.9c-0.6-5-1.6-8.9-2.8-13.5
			c-0.7-2.7-1.4-4.9-1.9-6.5c2.2,4.9,3.7,9.4,4.7,13c1.6,5.8,2.2,10.4,2.4,11.6C216.8,179,217.5,184.1,217.3,190.9z"/>
	</g>
	<path id="Top_Further" fill="#FF2A30" d="M285.7,346.3c-2.8-5-4.3-8.9-6.3-13.8c-1.9-4.7-3-8.3-4-11.4c-1.5-4.8-3.3-10.6-4.6-18.3
		c-0.9-4.9-1.2-8.5-1.7-13c-0.4-4-0.8-9.3-1-15.4c-0.3-10.1,0.2-17.8,0.4-20.5c0.4-5.4,0.8-9.4,1.6-15.4c0.7-6,1.5-11,1.9-14
		c0.9-6.4,1.1-6.6,2-12.8c0.7-4.8,0.6-4.7,1.8-13.1c1-7.6,1.6-11.4,1.9-13.6c0.8-5.2,1.2-7.8,1.5-12c0.1-1.6,0.1-2,0.2-6.6
		c0.3-11.1,0.4-10.5,0.4-13.9c0-5.1-0.3-8.9-0.7-14.1c-0.3-4.4-0.7-8.1-1-10.8c-0.4,0-1,0-1.7,0.1c-2.1,0.2-3.6,0.9-4.1,1.1
		c-5.7,2.4-8.8,3.8-9,3.5c-0.2-0.3,2.5-2.5,5.6-4.3c3.3-2,6.4-3,8.5-3.6c0-0.6,0.1-1.6,0-2.8c0,0-0.1-2.5-0.5-5.1
		c-1.5-9.2-5.4-19.5-5.4-19.5c-1.8-4.6-4.2-10.5-7.7-17.2c-0.4,0.2-0.8,0.5-1.2,0.7c-4.6,2.8-8.5,6-11.8,9.4c0.4-1,1-2.1,1.6-3.2
		c2.8-5,6.3-8.6,9.4-11.1c-1.5-2.8-3.2-5.9-5.3-9.1c-2.1-3.2-4.2-6.1-6.3-8.7c-0.4,0.2-0.9,0.5-1.4,0.9c-0.8,0.6-1.5,1.2-2,1.7
		c-2.2,2.1-2.8,3.3-3.1,3.2c-0.5-0.2,0.2-2.6,0.6-5.1c0.5-3.5,0.4-6.5,0.1-8.7c-3-2.9-6.2-5.9-9.7-8.9c-4.1-3.5-8.1-6.8-11.9-9.7
		c0,0.6,0,1.5-0.1,2.6c0,0.8-0.2,3.7-1.3,8.6c-0.5,2.3-1.2,5.4-2.6,9.3c-0.9,2.6-1.7,4.3-3,7.1c-0.4,0.8-3.7,8-4.1,7.8
		c-0.2-0.1,0.5-2,1.7-5.9c1.1-3.8,2.3-8,3.1-12.8c0.1-0.7,0.6-3.9,0.7-8.2c0.2-5-0.2-9.2-0.6-12.4c-1.7-1.3-3.7-2.7-5.9-4
		c-2-1.2-4-2.2-5.8-3.1c-0.2,0.6-0.5,1.4-0.9,2.4c-0.7,1.7-1.1,2.6-1.8,4.4c-1.7,4-1.9,4.7-2.1,4.7c-0.5-0.1-0.3-3-0.6-7.7
		c-0.2-2.9-0.5-5.2-0.7-6.8c-3.6-1.6-7.4-3.2-11.5-4.7c-3.3-1.2-6.6-2.3-9.7-3.3c0,0.4,0,1.1,0,1.9c0,0-0.1,2.8-0.4,5.6
		c-0.6,4.4-2.7,15.7-3.5,15.5c-0.2,0-0.2-0.4-0.3-3c-0.4-7.4-0.3-8.9-0.7-11.8c-0.3-2-0.6-3.7-1-5.3c-0.4-2-0.9-3.8-1.2-5.2
		c-7.2-1.9-15.4-3.6-24.4-4.9C135.8,0.4,126.2,0,117.9,0c1.6,2.8,3.7,6.7,5.5,11.7C128,24,128.7,35.8,128,36
		c-0.4,0.1-0.9-3.9-3.7-10.4c-1-2.3-4.3-9.8-11.1-17.8c-2.7-3.3-5.4-5.9-7.5-7.8c-2.4,0.1-4.8,0.3-7.2,0.5c-2.5,0.2-4.9,0.4-7.3,0.6
		c0.4,1.2,1,3,1.6,5.2c0.1,0.5,1.6,7,0.7,7.3c-0.6,0.2-1.7-2.7-4.6-6.4c-2-2.5-4-4.3-5.4-5.4C78.1,2.4,72.3,3.3,66,4.6
		c-6.3,1.3-12,2.9-17.1,4.5c0.6,0.4,1.4,1,2.3,1.8c1.3,1.1,4.9,4.2,9.6,11.1c2,2.8,4.9,7.3,7.7,13.7c3.4,8,5.1,16,4.7,16.1
		c-0.2,0.1-1.2-2.6-2.6-5.8c-0.7-1.5-4.6-10.2-11.7-18.3c-3.6-4.1-10-10.4-20.2-15.6c-3.4,1.3-6.9,2.7-10.5,4.3
		c-3.9,1.7-7.5,3.4-11,5.1c0.6,0.9,1.4,2.3,2.4,4c2.5,4.3,2.4,4.7,2.3,4.8c-0.4,0.3-1.8-0.8-5-2.9c-2.1-1.4-3.9-2.5-5.1-3.2
		c-1.8,1.2-3.6,2.4-5.4,3.6c-2.1,1.5-4.3,3-6.4,4.4c11.3,4.1,20.2,8.7,26.6,12.6c11.8,7.1,19.9,14.1,25.7,19.2
		c6.3,5.6,11.3,10.6,14.9,14.5l2.6-0.9c-0.5-0.7-1.3-1.7-2.2-2.8c-1.1-1.4-4.6-5.6-9.5-10.6c-3.7-3.7-8.1-8.1-14.7-13
		C41,49.3,34.3,44.5,24.5,40c-11.1-5.1-19.8-6.9-19.7-7.1c0.1-0.2,8.4,1.3,18.4,5.3c8.8,3.5,15,7.5,18.6,9.8
		c9.8,6.3,16.4,12.3,18.8,14.7C66,67.8,70,72.6,73,76.5l2.4-0.4c-0.1-0.5-0.3-1.1-0.5-1.9c-0.1-0.5-0.8-2.6-1.9-5.3
		c-4.4-10.3-8.8-16.6-8.8-16.6c-2.9-4.1-5.4-6.9-8.3-10c-2-2.2-4.9-5.4-8.4-8.4c-9.1-7.8-18-10.9-18-11.1c0.1-0.1,4.7,1.5,10.3,4.6
		c10.6,5.9,17.1,13,21,17.3c3.5,3.9,8.8,9.8,13.4,19c2.3,4.6,3.7,8.6,4.6,11.6c0.5-0.1,1.3-0.3,2.2-0.6c1.4-0.3,6.9-1.7,15.4-2.9
		c3.9-0.6,8.8-1.2,14.5-1.6c0-0.2,0-0.5,0-0.7c-0.1-2.1-0.6-3.6-0.9-4.5c-0.7-2.2-0.3-2-1.1-4.7c-0.7-2.3-1.4-4-2.9-7.2
		c-0.6-1.5-1.4-3.2-2.6-5.5c-1-1.9-2.3-4.4-4.3-7.5c-1.2-1.9-2.7-4.1-5-6.8c-1.2-1.3-2.7-2.8-5.8-5.7c-3.3-3.2-4.8-4.5-4.7-4.5
		c0.1-0.1,3.7,2.7,7.4,6.1c2.4,2.2,5.7,5.3,9.3,9.9c3.9,5,5.8,9.1,9.3,16.1c1.7,3.4,3,6.5,3.9,10.5c0.4,1.8,0.7,3.4,0.8,4.5l6.2,0
		c0.1-0.2,0.1-0.5,0.2-0.9c0.1-0.5,0.4-2.1,0.6-4.3c0.4-5.5,0.1-9.9,0.1-9.9c-0.2-2.1-0.7-5-1.8-10.6c-0.9-4.8-1.4-7.3-1.9-9
		c-1-3.2-2-5.4-3.6-9c-0.9-2-2.5-5.3-4.8-9.3c-3.1-5.2-5.9-8.7-5.8-8.7c0.1,0,2.6,3,5.4,7.1c2.4,3.5,5.1,7.3,7.7,13
		c0.6,1.3,3.3,7.1,5.3,15.3c1,4,1.5,7.1,1.6,8.2c0.6,4.4,1.1,10.4,0.6,17.7c0.6,0,1.3,0,1.9,0c7.6,0.1,14.9,0.8,21.7,2.1
		c0.2-0.3,0.6-0.8,1-1.4c2.4-3.4,4.8-6.9,6-8.8c4-6.6,5.6-14.1,6.1-16.3c1.4-6.5,1.3-11.6,1.2-12.7c0-1-0.2-4.5-1.1-9.1
		c-1.7-8.4-4.8-14.2-4.7-14.3c0.1,0,2.1,3.8,4,9.2c1,2.8,2.2,6.6,2.9,11.7c0.2,1.3,0.6,5.2,0.3,10.3c-0.2,2.7-0.8,10-4.3,18.7
		c-1.5,3.6-3.8,8.3-7.5,13.4c0.5,0.1,1.2,0.3,2.1,0.6c4.2,1.1,6.3,1.6,7.2,1.9c2,0.6,4.9,1.5,8.4,3.3c0.2-0.2,0.5-0.4,0.9-0.7
		c2.8-2.2,4.5-4.5,6.1-6.8c3.6-5,5.3-7.5,6.2-9.2c1.5-3,2.4-5.4,3.2-7.7c0.8-2.2,1.4-4,1.9-6.6c0.2-1.1,0.7-3.7,0.7-7.1
		c0.1-7.1-1.6-11.9-1.4-11.9c0.2,0,1.9,4.2,2.3,9.8c0.2,2.8-0.1,4.8-0.4,7.3c-1,8.2-3.4,14.2-4.2,16.1c-1.8,4.3-3.6,7.4-4.3,8.4
		c-1.8,2.9-3.6,5.1-4.6,6.4c-0.9,1.2-1.8,2.1-2.5,2.9c0,0.3,0.1,0.4,0.1,0.7c2,1.2,3.9,2.3,5.9,3.3c0.3-0.2,0.8-0.4,1.3-0.7
		c0.8-0.4,3.7-2.1,7.6-5.5c1.8-1.6,3.7-3.2,5.9-5.8c1.9-2.3,3.2-4.4,4-5.7c2.5-4.4,3.5-7.9,3.6-7.9c0.1,0-0.7,2.8-1.9,5.8
		c-0.7,1.9-1.3,3.2-2.2,5c-1.4,2.8-2.9,4.7-4.1,6.4c-1,1.3-2.2,2.9-3.9,4.7c-1.5,1.5-3.6,3.5-6.5,5.5c0.4,0.3,0.8,0.5,1.1,0.8
		c3.7,2.5,7.1,5,10.4,7.6c0.4-0.1,0.9-0.3,1.5-0.5c1.9-0.7,6.4-2.4,11.5-5.7c6.1-4,10-8.2,12.3-10.9c2.1-2.3,4-4.5,6.1-8
		c2.4-4.1,3.6-7.9,4.4-10.4c1.3-4.1,1.8-7.1,1.9-7.1c0.1,0-0.5,4-1.7,8.4c-0.6,1.9-1.6,5.7-3.8,10c-3.6,7-8,11.5-11,14.5
		c-1.8,1.8-4.7,4.6-9,7.4c-3.5,2.3-6.7,3.8-9.1,4.8c1,0.8,2,1.6,3,2.5c2.7,2.4,5,4.8,6.9,7.1c0.6,0,1.6,0.1,2.7,0
		c8.1-0.4,14.2-4.6,18.1-7.4c2.8-2,5.2-3.7,7.7-6.7c5.2-6.2,6.4-12.8,6.7-12.7c0.2,0.1-0.6,4-2.8,8.2c-0.4,0.7-1.8,3.5-4.8,7.1
		c-1.9,2.3-5.3,6.2-10.9,9.6c-5.3,3.2-10.4,4.6-13.9,5.2c0.2,0.2,0.5,0.5,0.8,0.9c1.7,2.1,3.7,4.8,6.5,9.4c2.3,3.8,3.7,6.6,6,11.1
		c1.2,2.3,2.1,4.2,2.8,5.5c0.3-0.3,0.7-0.6,1.1-1.1c2-1.8,4.9-4.4,9-7.1c5.1-3.3,9.4-4.8,10.3-5.2c2.6-0.9,5.2-1.6,5.2-1.5
		c0,0.1-2.3,0.8-5.3,2.2c-1.3,0.6-4.5,2.3-8.1,5.2c-1.6,1.3-2.6,2.3-4.1,3.8c-1.8,1.8-4.1,4.2-6.6,7.3c0.1,0.4,0.3,0.7,0.4,1.1
		c1.1,3.1,2.2,6.2,3.2,9.2c0.2-0.1,0.4-0.3,0.8-0.6c1.4-1,4.3-2.6,11.7-3.4c2.4-0.3,4.8-0.5,8-0.3c2.5,0.1,7.6,0.5,13.1,3
		c0.5,0.2,2.5,1.2,4.9,2.8c2.1,1.4,3.8,2.8,3.7,2.9c-0.1,0.1-2.2-1.7-5.6-3.5c-2.3-1.2-4.3-1.9-5.6-2.2c-1.4-0.4-3.7-1-6.6-1.3
		c-2.1-0.2-6.4-0.4-11.4,0.9c-2.2,0.5-3.8,1.2-4.9,1.6c-2.9,1.2-5.3,2.4-6.9,3.5c0.2,0.9,0.4,1.7,0.6,2.6c0.7,2.6,1.4,5.2,2.1,7.6
		c0.5,0,1.2-0.1,2.1,0c3.1,0.3,5.6,1.6,9,4.5c2.8,2.3,6.7,5.5,10.6,11.2c2,3,3.2,5.5,4.3,7.8c2,4.1,3.4,8,4.5,11.4
		c2.1,6.8,3,13.2,2.7,13.2c-0.2,0-1.1-3.6-1.9-6.4c-1.6-5.9-1.7-7.2-2.9-10.2c-0.5-1.3-1.2-2.6-2.7-5.4c-2.1-4-3.6-6.8-6.2-10
		c-1.2-1.5-2.2-2.5-2.9-3.3c-3-3.2-5.6-5.9-9.5-7.7c-3.4-1.6-6.8-2-6.9-1.7c-0.1,0.2,1.6,0.7,3.5,2.1c2.4,1.7,3.5,3.7,5.9,7.7
		c0.7,1.1,2,3.5,3.3,6.6c1,2.4,1.5,3.7,1.9,5.6c0.2,1.1,0.3,1.6,0.7,6.7c0.3,3.5,0.3,3.2,0.4,3.9c0.5,5.1,0.5,9.8,0.5,11.3
		c0,6.5,0.1,13.1,0.1,19.6c-0.1,15.2-0.1,24.1,0.3,32.8c0.1,2.1,0.3,6,0.9,10.9c0.5,4.1,1,7.2,1.3,8.8c0.9,5,1.9,8.7,2.4,10.9
		c1.3,4.8,2.4,8.5,2.7,9.4c1.5,4.7,2.5,7,2.4,7.1c-0.2,0.1-3.2-5.8-5.5-13.3c-1.4-4.6-2.2-8.4-3-12.5c-0.8-4.2-1.3-7.5-1.6-9.6
		c-0.2-1.7-1-7.6-1.6-16.4c-0.4-5.8-0.5-10-0.6-15.9c0-1.6-0.1-3.4-0.2-18.8c-0.1-10.2-0.1-11.8-0.4-15c-0.1-1.6-0.6-5.2-1.5-12.4
		c-0.8-5.9-1-7.3-1.5-9.4c-0.9-3.6-1.8-6.7-4.2-9.8c-2.3-3-5.4-5.1-5.6-4.9c-0.1,0.1,0.8,1.2,1.4,2c1.6,2,3.2,5,4.9,14.1
		c1,5.3,1.3,9.5,1.5,11.8c0.4,5.7,0.4,10,0.4,18.3c0,9.5-0.3,10.6-0.1,17.1c0,1.6,0.2,5.6,0.5,10.8c0.3,5.2,0.7,9.4,1,12.1
		c0.6,5.2,1.1,10,2.2,15.9c0.6,3.1,2.2,11.2,5.6,21.5c1.3,4,3.3,9.8,6.7,17c4.8,10,9.8,17.2,12.6,21c6.1,8.2,13.3,15.8,13.8,15.4
		C287.5,349.3,286.8,348.3,285.7,346.3z M84.8,44.5c1.5,6.5,1.4,12.1,1.1,12.2c-0.3,0-0.4-6.4-3.1-14.8c-1.8-5.5-3.9-9.4-5.1-11.7
		c-1.5-2.7-3.8-7-7.9-11.8c-3.9-4.5-7.1-6.9-7-7c0.1-0.2,5,3.3,9.7,8.6c2.5,2.8,4.1,5.2,4.7,6.2c1.8,2.8,2.8,5,3.6,6.7
		C81.8,35.4,83.6,39.3,84.8,44.5z M253.8,99.9c-1.7,1.9-1.7,2.5-4.2,6c-1.4,1.8-2,2.8-3,3.8c-1.3,1.3-2.8,2.9-5.1,4.1
		c-1.9,1-3.7,1.4-5.2,1.7c-0.9,0.2-2.2,0.5-3.7,0.5c-4.5,0.2-8.4-1.7-8.3-2c0-0.2,1.5,0.4,4.3,0.5c5.2,0.2,9.1-1.3,9.9-1.6
		c1.2-0.5,3.2-1.3,5.3-3c0.4-0.3,1-0.8,3.8-4.1c2.9-3.4,3-3.6,4.3-5c1.6-1.7,3-3.2,5-4.7c4-2.8,8-3.6,8-3.5c0,0.1-3.3,0.7-6.6,3.3
		C255.9,97.4,253.9,99.8,253.8,99.9z M261.8,164.1c-3.8-2.4-6.4-2.8-7.1-2.9c-0.7-0.1-1.4-0.1-1.4-0.2c0-0.1,3.5-0.3,6.8,0.8
		c3.1,1,5,2.7,6.9,4.5c1.4,1.3,3.9,3.6,5.7,7.5c0.9,2,1.6,4.4,1.4,4.4c-0.1,0-0.5-0.8-0.9-1.7c-1.3-2.4-2.6-4.1-3.5-5.3
		C266.3,167.1,262.4,164.5,261.8,164.1z M258.6,252c-0.6,2.9-1.2,5.6-1.5,9.2c-0.5,5.7-0.1,9.4-0.2,9.4c-0.2,0-1-4.2-0.9-9.4
		c0-4.9,0.8-8.8,1.2-11.3c1-5,1.5-5.2,2.2-9.9c0.5-3.1,0.6-5.5,0.8-8.2c0.1-2.1,0.3-5.3,0.2-9.3c-0.2-7.1-1.1-11.6-0.9-11.6
		c0.2,0,1.3,4.1,2,8.6c0.4,2.9,1,6.7,0.8,11.8c-0.2,4.4-0.9,7.7-1.5,11C260,246.7,259.6,247,258.6,252z M270.6,323.8
		c-0.2,0.1-2.7-4.8-4.7-11.1c-1.1-3.5-1.6-6.4-2-8.6c-0.5-2.9-0.7-5-1.1-8.7c-0.5-4.6-0.8-7.4-0.8-11.2c0-2.8,0.1-4.8,0.3-8.3
		c0.4-6.8,1.1-11.7,1.2-12.7c0.7-5.3,1.7-10,1.9-10c0.1,0-0.5,3.8-1,9.9c-0.1,1.1-0.4,5.3-0.6,10.7c-0.1,4.1,0,7.5,0.1,14.4
		c0.1,5.1,0.2,7.6,0.2,8.7c0.6,7.6,2,13.4,2.7,16C268.8,319.7,270.8,323.7,270.6,323.8z"/>
</g>
<g id="legion_1_">
	<g id="legion">
		<path d="M419,226.9h-19.6V91H419V226.9z M554.7,149.2H438.1v-19.6h116.6V149.2z M554.7,188H438.1v-19.6h116.6V188z M554.7,226.9
			H438.1v-19.6h116.6V226.9z M690.3,265.5H573.5v-19.3h97.3v-19.3h-97.3v-97.3h116.9V265.5z M670.8,207.3v-58.2H593v58.2H670.8z
			 M728.7,226.9h-19.6v-97h19.6V226.9z M864.3,226.9H747.7v-97.3h116.6V226.9z M844.8,207.3v-58.2h-77.7v58.2H844.8z M902.7,226.9
			h-19.3v-97.3H1000v97.3h-19.6v-77.7h-77.7V226.9z"/>
	</g>
</g>
</svg>