<?xml version="1.0" standalone="no"?>
<!DOCTYPE svg PUBLIC "-//W3C//DTD SVG 20010904//EN"
 "http://www.w3.org/TR/2001/REC-SVG-20010904/DTD/svg10.dtd">
<svg version="1.0" xmlns="http://www.w3.org/2000/svg"
 width="976.000000pt" height="976.000000pt" viewBox="0 0 976.000000 976.000000"
 preserveAspectRatio="xMidYMid meet">
<metadata>
Created by potrace 1.11, written by Peter Selinger 2001-2013
</metadata>
<g transform="translate(0.000000,976.000000) scale(0.100000,-0.100000)"
fill="#000000" stroke="none">
<path d="M3567 9754 c-2 -2 -35 -5 -73 -7 -87 -4 -97 -9 -83 -45 14 -34 49
-168 55 -204 2 -16 6 -41 9 -58 2 -16 2 -30 0 -30 -2 0 -14 17 -26 38 -39 64
-120 165 -178 220 l-56 54 -55 -6 c-67 -8 -108 -14 -178 -26 -29 -5 -56 -9
-60 -9 -4 1 -9 0 -12 -1 -3 -1 -16 -3 -30 -5 -14 -1 -36 -5 -50 -8 -64 -15
-91 -20 -160 -32 -8 -2 -35 -8 -60 -15 -25 -7 -54 -14 -65 -16 -11 -2 -76 -20
-145 -39 -69 -20 -136 -38 -150 -41 -36 -8 -38 -13 -9 -37 102 -84 127 -108
178 -167 85 -101 86 -103 160 -213 116 -172 203 -347 261 -526 10 -31 21 -64
25 -73 4 -10 3 -18 -2 -18 -5 0 -20 24 -34 53 -22 49 -117 216 -129 227 -3 3
-23 32 -45 65 -70 105 -186 233 -312 345 -49 45 -151 120 -161 120 -6 0 -12 4
-14 9 -5 15 -190 121 -210 121 -20 0 -166 -57 -313 -123 -117 -52 -298 -137
-303 -141 -1 -2 27 -52 62 -112 35 -60 63 -110 61 -112 -4 -4 -119 71 -123 81
-2 4 -8 7 -14 7 -5 0 -29 14 -54 31 -24 16 -52 31 -62 32 -9 0 -55 -26 -102
-58 -47 -32 -118 -80 -157 -108 -42 -28 -73 -57 -73 -66 0 -11 14 -22 38 -30
336 -118 804 -377 1097 -608 68 -54 213 -171 225 -183 9 -8 54 -48 101 -89 46
-41 157 -147 246 -236 l163 -160 37 13 c21 7 42 17 47 22 7 7 -33 66 -79 116
-5 6 -28 32 -50 58 -102 123 -324 347 -450 453 -133 113 -369 283 -394 283 -5
0 -11 3 -13 8 -1 4 -32 22 -68 41 -36 19 -69 38 -75 44 -14 14 127 -60 215
-112 139 -83 345 -227 460 -322 127 -104 389 -363 402 -397 2 -4 17 -21 33
-38 17 -18 39 -44 50 -60 32 -44 47 -56 62 -50 8 3 26 6 40 6 23 0 24 3 20 38
-8 51 -49 162 -106 284 -26 57 -48 105 -48 108 -2 12 -156 267 -185 304 -63
81 -197 233 -301 341 -59 61 -107 112 -107 113 0 17 240 -213 339 -323 113
-127 271 -338 271 -364 0 -5 4 -11 9 -13 15 -5 148 -289 177 -379 l28 -85 95
23 c107 26 111 27 231 48 106 19 123 22 183 30 27 4 57 8 67 10 11 2 45 6 77
10 93 9 155 15 207 20 55 5 68 17 56 51 -5 12 -6 24 -3 27 2 3 -3 32 -13 64
-9 32 -18 65 -19 73 -5 36 -14 70 -29 116 -24 69 -123 286 -168 366 -21 37
-46 82 -56 100 -11 18 -36 60 -56 93 -58 94 2 20 85 -104 90 -135 270 -490
284 -561 2 -8 8 -33 14 -55 13 -50 24 -113 25 -142 1 -22 4 -23 104 -23 74 0
102 3 103 13 0 6 2 21 5 32 13 65 18 136 18 260 0 128 -3 175 -18 260 -3 17
-8 44 -10 62 -2 17 -6 36 -9 40 -3 5 -8 27 -11 49 -4 22 -9 51 -11 64 -3 14
-8 41 -11 60 -3 19 -8 38 -10 41 -2 3 -6 21 -9 40 -8 50 -33 121 -82 239 -24
58 -40 100 -35 95 5 -6 26 -48 47 -95 20 -47 43 -98 50 -115 31 -72 105 -327
120 -415 3 -19 8 -42 10 -50 2 -8 7 -40 10 -70 4 -30 9 -73 12 -95 3 -22 6
-122 6 -222 2 -176 2 -183 22 -183 71 -1 277 -10 310 -14 22 -3 67 -8 100 -11
75 -7 94 -10 175 -24 62 -11 66 -10 83 11 10 13 25 32 34 42 9 11 25 35 36 55
12 20 24 38 27 41 35 30 150 236 189 340 22 56 61 189 67 225 1 11 5 30 8 43
4 12 8 32 11 45 9 38 17 129 18 204 1 40 6 73 11 73 8 0 2 -247 -8 -300 -3
-14 -7 -43 -11 -65 -9 -67 -35 -165 -67 -260 -33 -98 -125 -298 -139 -303 -5
-2 -9 -8 -9 -14 0 -5 -23 -43 -50 -84 l-50 -74 26 -10 c14 -6 32 -10 40 -10 9
0 23 -4 33 -9 10 -6 28 -12 42 -14 13 -2 31 -6 39 -9 8 -3 51 -16 95 -28 44
-12 117 -38 163 -57 l83 -36 27 24 c89 78 120 116 241 291 92 132 138 218 176
325 12 35 24 60 27 57 18 -17 -145 -403 -183 -434 -3 -3 -12 -16 -19 -30 -16
-30 -90 -129 -142 -189 -21 -24 -38 -52 -38 -61 0 -18 44 -48 139 -97 l45 -22
35 21 c166 100 279 199 431 378 l22 25 -21 -32 c-12 -17 -21 -34 -21 -37 0 -4
-5 -12 -10 -19 -6 -7 -35 -46 -66 -87 -60 -82 -182 -205 -245 -247 -21 -14
-39 -29 -39 -34 0 -4 46 -41 103 -81 56 -40 107 -76 112 -80 6 -5 34 -27 62
-49 l53 -41 52 17 c87 28 302 136 353 177 5 4 47 38 93 74 92 72 176 154 237
230 22 27 52 63 68 79 15 17 35 42 43 58 8 15 17 27 20 27 12 0 -76 -134 -145
-220 -45 -56 -202 -213 -261 -261 -79 -65 -182 -129 -288 -182 l-104 -50 39
-31 c21 -17 89 -82 152 -145 l114 -113 71 5 c39 3 82 8 96 11 14 3 39 8 55 12
46 9 174 64 230 98 50 31 225 154 235 165 3 3 14 13 25 21 24 17 -28 -43 -68
-79 -75 -68 -95 -85 -132 -111 -95 -66 -280 -149 -370 -166 -49 -9 -81 -17
-88 -21 -4 -3 6 -19 24 -36 32 -33 176 -246 224 -332 15 -27 66 -124 113 -215
46 -91 91 -171 98 -179 10 -12 16 -10 36 11 49 51 167 146 248 200 87 56 151
92 119 66 -132 -108 -285 -259 -347 -343 l-22 -30 40 -110 c22 -61 40 -113 40
-116 0 -4 7 -23 15 -44 12 -26 19 -34 28 -27 28 22 108 62 144 71 110 29 247
47 348 45 141 -3 155 -4 155 -11 0 -5 -47 -9 -104 -10 -124 -1 -229 -26 -366
-86 -122 -52 -160 -77 -160 -102 0 -20 22 -107 57 -227 9 -32 21 -58 27 -59
134 -8 186 -31 317 -138 144 -119 313 -323 355 -431 4 -8 24 -50 46 -93 22
-43 38 -80 36 -82 -2 -2 -13 12 -23 33 -120 228 -261 407 -409 519 -49 37
-150 94 -176 98 -3 1 -23 7 -45 13 -53 16 -105 15 -105 -1 0 -7 26 -28 57 -46
74 -45 108 -81 170 -182 89 -146 161 -310 177 -402 6 -37 17 -139 21 -207 2
-30 4 -55 5 -55 8 0 11 -181 15 -715 6 -858 14 -1201 30 -1292 2 -16 1 -28 -4
-28 -4 0 -8 6 -8 13 0 6 -4 46 -8 87 -4 41 -9 93 -10 115 -2 22 -6 74 -9 115
-14 168 -16 231 -21 608 -3 217 -7 398 -10 402 -3 5 -1 11 5 15 7 4 7 12 0 25
-7 13 -7 21 0 25 6 4 7 11 4 17 -4 5 -8 80 -9 166 -2 87 -5 175 -8 197 -3 22
-9 65 -12 95 -4 30 -8 66 -10 80 -4 24 -20 146 -31 240 -30 237 -98 405 -206
508 -106 101 -158 108 -89 10 36 -49 85 -154 96 -203 2 -11 9 -40 16 -65 12
-49 13 -57 30 -140 11 -58 14 -80 24 -175 3 -33 9 -71 12 -85 3 -14 7 -236 9
-495 3 -400 10 -830 14 -830 1 0 3 -25 5 -55 5 -86 16 -212 20 -245 3 -16 7
-55 10 -86 2 -31 7 -72 9 -90 8 -61 16 -123 21 -164 3 -22 7 -51 10 -65 12
-57 16 -77 21 -110 3 -19 7 -41 10 -49 2 -8 7 -30 10 -50 3 -20 9 -49 14 -66
5 -16 11 -41 14 -55 16 -89 145 -500 190 -605 183 -426 322 -663 565 -960 187
-228 301 -333 301 -277 0 11 -28 75 -63 143 -59 117 -154 343 -211 507 -46
131 -131 426 -142 492 -2 14 -9 45 -14 70 -5 25 -14 72 -19 105 -6 33 -13 74
-15 90 -3 17 -7 50 -10 75 -3 25 -7 69 -10 98 -6 54 -11 104 -21 207 -21 225
-21 806 0 913 2 11 7 58 10 104 10 112 14 153 15 153 1 0 3 16 5 35 1 19 5 53
8 75 4 22 11 78 17 125 12 95 15 115 26 180 4 25 8 56 9 70 8 67 17 129 25
165 5 22 11 60 14 85 3 25 8 54 10 66 2 12 7 45 11 74 4 29 8 61 10 70 2 9 6
41 9 71 3 30 8 63 10 75 2 12 7 43 10 70 11 84 14 108 20 139 2 17 8 55 11 85
3 30 8 62 10 70 2 8 7 39 10 68 3 29 10 76 15 104 6 28 13 76 16 106 3 31 8
65 10 76 11 55 25 407 27 676 1 157 -6 332 -18 445 -2 22 -7 72 -10 110 -8
103 -16 169 -22 178 -10 17 -118 -4 -198 -38 -93 -41 -155 -63 -150 -54 11 16
154 96 214 119 31 12 71 28 89 36 l34 14 -6 98 c-7 107 -9 124 -32 227 -9 39
-17 78 -19 87 -19 92 -96 323 -159 478 -66 159 -167 370 -178 370 -16 0 -149
-90 -225 -151 -40 -33 -73 -55 -73 -51 0 22 106 157 178 227 l79 77 -45 82
c-94 168 -272 426 -294 426 -16 0 -104 -67 -138 -107 l-32 -36 7 39 c3 22 9
57 12 79 4 22 7 84 7 138 l0 99 -70 67 c-38 37 -110 103 -160 146 -96 85 -111
97 -189 160 -27 22 -52 42 -55 45 -12 14 -153 120 -155 118 -2 -2 -6 -43 -9
-93 -8 -109 -46 -299 -83 -415 -15 -47 -27 -87 -28 -90 -1 -3 -7 -18 -13 -33
-7 -16 -12 -30 -12 -32 0 -8 -93 -196 -95 -193 -2 2 8 41 22 88 22 76 44 166
58 240 3 14 7 36 10 49 17 86 23 375 10 476 -4 28 -6 60 -6 72 1 16 -15 35
-54 64 -59 44 -272 169 -289 169 -6 0 -35 -63 -65 -140 -30 -77 -57 -137 -60
-135 -2 3 -6 33 -7 68 -8 173 -21 279 -37 289 -45 28 -422 172 -554 211 l-53
16 -1 -67 c0 -70 -4 -117 -16 -192 -3 -25 -7 -54 -8 -65 -2 -11 -5 -33 -9 -50
-3 -16 -9 -46 -12 -65 -3 -19 -11 -56 -19 -82 -7 -25 -11 -49 -8 -52 4 -3 1
-6 -6 -6 -7 0 -12 15 -11 38 0 20 -1 82 -4 138 -4 93 -8 133 -22 209 -3 17 -7
39 -9 50 -1 11 -10 52 -19 90 -9 39 -18 80 -21 92 -4 18 -41 36 -70 34 -2 0
-23 6 -45 14 -22 8 -40 12 -40 10 0 -2 -15 1 -32 6 -18 5 -46 12 -63 15 -16 3
-59 11 -95 19 -36 7 -83 17 -105 21 -22 4 -44 8 -50 9 -20 5 -161 27 -190 30
-16 2 -43 6 -60 9 -16 2 -57 8 -90 11 -33 4 -73 9 -90 12 -58 9 -567 15 -564
7 2 -5 32 -65 66 -134 51 -102 133 -318 148 -389 2 -9 11 -47 20 -86 10 -38
19 -79 20 -90 2 -11 10 -59 18 -108 8 -48 11 -90 7 -92 -4 -3 -11 10 -15 28
-4 17 -8 34 -9 37 -1 3 -4 10 -7 15 -4 6 -12 28 -19 50 -18 56 -87 198 -132
273 -21 34 -38 65 -38 68 0 2 -5 10 -10 17 -12 13 -127 167 -150 200 -8 12
-58 66 -110 120 l-95 98 -137 -2 c-76 -1 -139 -4 -141 -5z m-545 -744 c7 -17
16 -30 19 -30 5 0 55 -104 104 -215 10 -22 20 -43 22 -47 2 -5 -1 -8 -6 -8 -6
0 -11 5 -11 11 0 32 -172 350 -216 400 -8 8 -14 19 -14 24 0 14 87 -102 102
-135z m2385 -142 c-3 -8 -6 -5 -6 6 -1 11 2 17 5 13 3 -3 4 -12 1 -19z m-2224
-198 c3 -11 2 -18 -3 -15 -4 3 -10 14 -13 25 -3 11 -2 18 3 15 4 -3 10 -14 13
-25z m-1523 -56 c0 -2 -9 0 -20 6 -11 6 -20 13 -20 16 0 2 9 0 20 -6 11 -6 20
-13 20 -16z m1537 4 c-3 -8 -6 -5 -6 6 -1 11 2 17 5 13 3 -3 4 -12 1 -19z
m4621 -1800 c-54 -79 -163 -188 -208 -209 -76 -35 -94 -42 -152 -55 -39 -9
-188 -14 -188 -6 0 4 21 8 48 9 146 5 308 73 397 166 22 23 62 68 89 100 27
31 50 57 53 57 2 0 -15 -28 -39 -62z m207 -1138 c17 -8 16 -8 -7 -7 -16 1 -28
5 -28 9 0 10 9 9 35 -2z m275 -563 c36 -34 77 -75 90 -91 l25 -29 -27 19 c-15
10 -30 27 -33 37 -4 9 -9 17 -13 17 -4 0 -27 19 -52 41 -25 23 -69 57 -97 76
-29 20 -53 38 -53 40 0 15 106 -58 160 -110z m-145 -1517 c2 -12 1 -20 -2 -16
-4 4 -8 16 -10 28 -4 28 6 18 12 -12z m6 -47 c7 -75 6 -317 -1 -353 -5 -25
-11 -65 -15 -90 -4 -25 -11 -65 -16 -90 -6 -25 -11 -54 -13 -65 -1 -11 -6 -30
-10 -42 -4 -12 -9 -30 -11 -40 -2 -10 -13 -61 -24 -112 -12 -52 -24 -115 -27
-140 -3 -26 -10 -50 -16 -56 -6 -7 -7 -5 -4 5 2 8 7 40 11 70 12 116 21 164
59 316 8 33 18 83 21 110 3 27 8 60 10 74 10 51 18 179 19 302 0 71 4 128 9
128 4 0 8 -8 8 -17z m-238 -1487 c4 -22 2 -35 -2 -30 -5 5 -11 41 -14 79 -6
69 2 47 16 -49z m290 99 c4 -8 3 -16 -1 -19 -4 -3 -9 4 -9 15 -2 23 3 25 10 4z
m-1 -303 c3 -181 1 -259 -7 -251 -6 6 -10 90 -11 222 -1 195 3 303 11 295 2
-2 5 -121 7 -266z m-274 102 c0 -17 -3 -22 -8 -13 -5 6 -6 18 -3 26 8 19 11
16 11 -13z m15 -84 c3 -11 1 -18 -4 -14 -5 3 -9 12 -9 20 0 20 7 17 13 -6z m4
-52 c-3 -8 -6 -5 -6 6 -1 11 2 17 5 13 3 -3 4 -12 1 -19z m30 -140 c-3 -8 -6
-5 -6 6 -1 11 2 17 5 13 3 -3 4 -12 1 -19z m21 -73 c-3 -3 -9 2 -12 12 -6 14
-5 15 5 6 7 -7 10 -15 7 -18z m6 -31 c3 -8 2 -12 -4 -9 -6 3 -10 10 -10 16 0
14 7 11 14 -7z m206 -9 c0 -8 -2 -15 -4 -15 -2 0 -6 7 -10 15 -3 8 -1 15 4 15
6 0 10 -7 10 -15z"/>
<path d="M4203 7703 c-5 -1 -37 -4 -73 -5 -57 -3 -65 -5 -63 -22 7 -90 21
-211 28 -246 2 -14 7 -50 10 -80 3 -30 8 -73 12 -95 7 -42 11 -74 12 -90 1 -8
76 -12 76 -5 0 3 43 8 108 13 38 3 71 8 74 11 3 3 6 27 7 53 l1 48 -50 -2
c-27 -2 -64 -5 -81 -8 -36 -5 -50 7 -52 45 -1 23 -15 147 -28 243 l-5 37 58 1
c98 2 134 1 258 -4 66 -3 138 -8 160 -11 35 -6 94 -13 118 -15 5 -1 6 -47 3
-103 -4 -57 -8 -144 -11 -195 -3 -50 -7 -107 -10 -127 -3 -20 -7 -53 -10 -73
-3 -21 -8 -50 -11 -65 -4 -22 -2 -28 13 -29 10 -1 32 -2 48 -4 17 -1 68 -5
115 -9 47 -3 96 -8 110 -10 14 -3 43 -7 65 -10 22 -3 76 -17 120 -31 44 -14
85 -25 91 -25 10 0 22 27 28 60 1 3 6 19 13 35 20 54 26 70 29 80 1 6 20 61
43 124 23 63 41 118 41 122 0 7 -242 99 -261 99 -11 0 -39 -93 -30 -101 3 -4
35 -16 71 -28 35 -13 68 -25 72 -27 4 -3 -11 -55 -32 -116 -22 -62 -40 -114
-40 -116 0 -3 -10 -1 -22 2 -13 4 -32 9 -43 11 -11 2 -40 9 -65 15 -46 10
-124 20 -195 24 l-40 2 1 74 c1 41 4 116 8 165 4 50 9 108 11 130 1 22 6 79
10 128 5 69 4 87 -7 88 -7 0 -20 2 -28 3 -8 2 -37 6 -65 10 -27 3 -61 8 -75
11 -52 11 -490 26 -517 18z"/>
<path d="M3816 7683 c-1 -1 -27 -5 -57 -8 -30 -3 -99 -14 -154 -25 -55 -10
-116 -21 -136 -24 -20 -3 -42 -8 -50 -10 -8 -3 -32 -8 -54 -11 -58 -8 -428
-104 -437 -113 -4 -4 49 -99 117 -210 69 -112 125 -207 125 -212 0 -5 3 -10 8
-12 4 -1 27 -36 50 -76 34 -56 47 -72 61 -67 10 3 67 25 127 49 l109 44 -2 58
c-1 31 -5 59 -7 62 -3 2 -50 -11 -105 -31 -75 -27 -102 -33 -109 -24 -19 25
-202 344 -202 352 0 5 95 37 125 41 17 3 55 11 85 19 30 7 75 16 100 20 80 13
94 15 145 25 47 9 88 14 193 26 23 2 48 5 54 7 13 2 24 -43 33 -130 3 -35 9
-84 14 -110 5 -27 9 -55 9 -63 0 -8 3 -26 7 -40 8 -32 11 -58 19 -145 4 -38 8
-79 11 -90 2 -11 4 -33 4 -50 2 -46 13 -58 45 -46 36 14 211 50 278 57 29 3
64 7 78 10 27 5 147 13 245 17 33 2 65 6 71 10 7 4 12 47 14 114 1 60 3 144 6
188 7 165 8 195 2 200 -13 13 -318 26 -319 14 -6 -44 -2 -112 6 -117 5 -3 41
-7 80 -8 38 -1 78 -3 87 -3 16 -1 17 -13 12 -133 -3 -73 -7 -134 -9 -136 -6
-6 -55 -11 -162 -16 -62 -2 -116 -7 -120 -9 -5 -3 -25 -8 -45 -11 -21 -3 -57
-10 -80 -16 -58 -13 -75 -12 -75 3 -2 23 -13 112 -17 137 -3 14 -8 52 -11 85
-9 80 -14 122 -21 170 -4 22 -8 47 -9 55 -1 8 -5 40 -10 70 -10 66 -13 91 -14
108 -1 10 -16 12 -57 10 -31 -2 -57 -4 -58 -5z"/>
<path d="M4990 7596 c-12 -62 -29 -177 -34 -231 -5 -52 -15 -121 -26 -168 -9
-43 -10 -42 50 -52 86 -13 95 -15 130 -25 56 -16 65 -13 87 36 l21 45 -21 8
c-12 5 -48 14 -80 21 l-58 13 7 66 c4 36 8 77 10 91 4 37 16 105 19 108 3 3
168 -35 205 -48 72 -25 256 -93 259 -96 2 -2 -19 -57 -47 -121 -28 -65 -66
-156 -85 -203 -19 -47 -42 -102 -51 -123 l-17 -38 88 -40 c168 -77 218 -102
306 -151 85 -47 107 -52 107 -23 0 7 4 15 8 17 8 3 98 156 160 270 l31 57 -40
28 c-22 15 -66 47 -99 71 -33 23 -66 42 -73 42 -12 0 -67 -67 -67 -81 0 -3 27
-23 60 -44 33 -21 60 -42 60 -46 0 -4 -20 -42 -45 -83 -25 -42 -45 -81 -45
-86 0 -12 -37 -14 -42 -2 -4 9 -128 69 -162 78 -14 3 -26 10 -26 14 0 4 -12
10 -27 13 -57 13 -57 14 13 173 62 142 94 212 134 297 l18 37 -35 15 c-20 8
-37 15 -38 15 -1 0 -20 8 -41 17 -22 9 -41 17 -44 18 -3 1 -21 8 -41 17 -38
17 -250 86 -284 92 -11 2 -48 11 -83 20 -34 9 -83 20 -107 25 l-44 8 -11 -51z"/>
<path d="M3575 7390 c-103 -20 -200 -46 -232 -62 -23 -11 -22 -20 13 -94 l15
-31 102 28 c56 16 109 28 118 29 17 0 22 -20 34 -130 4 -30 8 -61 11 -68 2 -8
7 -41 10 -75 l6 -62 -146 -59 c-193 -77 -187 -72 -151 -129 l29 -45 40 13 c23
7 111 37 196 67 l155 53 -1 55 c-1 55 -10 169 -18 219 -3 14 -9 58 -15 96 -6
39 -13 81 -15 95 -3 14 -8 46 -12 73 -8 55 -3 54 -139 27z"/>
<path d="M5745 7354 c-9 -18 -16 -36 -16 -39 0 -2 -17 -42 -38 -87 -38 -83
-53 -119 -55 -128 -1 -3 -7 -15 -14 -28 -7 -13 -19 -40 -27 -61 l-13 -38 78
-36 c44 -20 82 -41 85 -47 9 -15 45 -12 45 4 0 7 7 19 15 26 26 22 16 44 -30
73 -25 15 -50 27 -55 27 -15 0 -12 41 4 72 8 15 29 55 47 90 18 35 34 64 35
66 1 2 32 -15 69 -37 37 -23 70 -41 74 -41 3 0 18 -10 32 -23 15 -12 60 -44
101 -72 l75 -49 -77 -116 c-43 -63 -103 -154 -133 -202 l-56 -87 67 -45 c37
-24 76 -53 87 -63 11 -10 43 -34 70 -53 28 -19 64 -47 80 -62 17 -15 35 -28
40 -28 15 0 255 244 255 258 0 6 -30 43 -66 82 l-67 70 -29 -40 c-33 -44 -34
-37 17 -106 7 -10 -6 -29 -50 -74 -56 -57 -79 -70 -87 -52 -1 4 -40 36 -85 70
-45 34 -84 66 -87 70 -5 9 9 33 138 233 96 150 108 176 83 190 -9 6 -25 18
-35 28 -18 18 -119 91 -126 91 -3 0 -37 22 -78 48 -40 27 -114 72 -165 99
l-92 51 -16 -34z"/>
<path d="M6299 6951 c-19 -21 -68 -85 -109 -142 -41 -57 -78 -105 -82 -107
-10 -5 -10 -42 0 -42 4 0 29 -20 57 -45 27 -25 54 -45 60 -45 13 0 65 45 65
56 0 4 -14 23 -32 41 l-31 32 39 48 c21 26 51 61 66 78 l27 30 53 -55 c95 -99
148 -162 148 -175 0 -8 -23 -35 -52 -62 -67 -63 -111 -106 -176 -176 l-53 -57
53 -56 c29 -31 76 -79 103 -107 28 -29 68 -76 89 -105 l38 -52 51 37 c29 21
54 40 57 43 15 18 130 100 140 100 34 0 -29 116 -90 167 l-26 21 -33 -28 -34
-27 26 -34 c14 -19 27 -39 29 -46 2 -6 -21 -30 -51 -52 l-53 -40 -23 27 c-12
15 -48 53 -79 85 -31 33 -56 63 -56 67 0 5 63 70 140 146 l139 137 -17 29
c-22 39 -324 348 -338 348 -7 0 -27 -17 -45 -39z"/>
<path d="M4528 6905 c-2 -2 -46 -6 -98 -10 -132 -11 -137 -11 -210 -25 -36 -7
-76 -14 -90 -16 -14 -3 -77 -18 -140 -35 -63 -17 -122 -32 -130 -34 -23 -5
-181 -64 -220 -82 -124 -57 -182 -88 -187 -99 -3 -7 13 -46 35 -86 22 -40 58
-108 80 -150 23 -43 60 -110 84 -148 24 -39 48 -79 53 -88 6 -9 36 -57 68
-105 31 -48 57 -90 57 -92 0 -8 65 -100 73 -103 4 -2 7 -8 7 -13 0 -14 168
-263 268 -399 75 -102 258 -332 319 -400 12 -14 31 -36 42 -49 91 -106 198
-212 261 -260 72 -54 240 -149 240 -135 0 3 6 2 13 -4 21 -17 166 -44 241 -45
177 0 341 79 421 203 12 19 23 40 24 45 2 6 7 15 12 21 39 48 44 305 7 352 -6
6 -8 12 -4 12 17 0 -50 106 -95 150 -103 102 -251 138 -364 90 -79 -34 -132
-107 -138 -191 -7 -90 38 -149 122 -157 40 -3 52 0 78 22 28 24 44 60 48 106
0 8 -9 34 -21 57 -12 24 -19 45 -15 47 3 2 25 3 47 1 104 -8 191 -98 198 -203
8 -123 -57 -242 -163 -296 -105 -55 -325 -28 -418 51 -12 10 -34 27 -49 38
-28 21 -91 102 -111 145 -56 116 -56 286 -1 410 31 70 47 96 90 144 68 77 144
121 263 153 11 3 80 7 153 8 106 3 146 -1 198 -15 35 -10 64 -17 64 -15 0 10
172 -82 220 -117 154 -114 256 -274 295 -466 19 -90 19 -262 0 -334 -8 -26
-14 -52 -15 -56 -11 -67 -54 -164 -108 -247 -40 -63 -189 -225 -206 -225 -4 0
-16 -8 -27 -18 -29 -28 -159 -90 -202 -98 -20 -3 -40 -10 -43 -15 -3 -5 -10
-7 -15 -4 -21 14 -6 -13 49 -84 31 -41 67 -85 80 -98 12 -12 22 -25 22 -28 0
-21 282 -285 303 -285 4 0 15 -6 24 -14 51 -41 114 -86 122 -86 5 0 11 -4 13
-8 2 -4 26 -23 53 -42 28 -19 52 -38 55 -41 7 -9 159 -106 190 -121 14 -7 27
-15 30 -18 7 -9 150 -73 185 -84 23 -7 47 27 108 149 116 231 207 487 222 629
1 12 4 22 5 24 1 1 3 10 4 20 2 15 10 61 22 125 12 66 18 192 17 382 -1 232
-4 285 -26 390 -4 17 -9 41 -11 55 -3 14 -16 70 -31 125 -14 55 -28 107 -30
115 -12 50 -76 205 -132 323 -58 120 -183 329 -213 357 -3 3 -17 21 -30 40
-61 87 -230 261 -367 376 -61 52 -116 94 -121 94 -6 0 -12 4 -14 8 -3 10 -131
102 -174 126 -16 9 -45 26 -64 38 -121 72 -368 180 -465 203 -5 1 -17 5 -25 8
-13 5 -67 19 -205 53 -16 3 -43 8 -59 10 -16 3 -41 7 -55 10 -43 8 -72 12
-161 19 -83 7 -327 14 -332 10z m-273 -154 c-8 -7 -99 -44 -115 -47 -3 0 -16
-6 -30 -12 -14 -6 -68 -29 -121 -50 -91 -37 -203 -94 -241 -124 -15 -12 -14
-20 18 -103 61 -155 213 -459 311 -620 7 -11 19 -33 28 -50 8 -16 31 -54 50
-82 19 -29 31 -53 27 -53 -12 0 -292 442 -292 461 0 5 -4 9 -10 9 -5 0 -10 5
-10 11 0 6 -15 37 -34 68 -18 31 -55 97 -81 146 -26 50 -65 123 -87 163 -22
40 -38 75 -37 76 24 21 343 150 399 161 8 2 33 8 55 14 22 6 56 13 75 16 20 3
49 10 65 14 40 12 40 12 30 2z m1300 -190 c-9 -8 -36 -10 -30 -2 2 4 11 8 20
8 8 0 13 -3 10 -6z m-471 -39 c3 -5 -1 -9 -9 -9 -8 0 -12 4 -9 9 3 4 7 8 9 8
2 0 6 -4 9 -8z m6 -238 c0 -8 -19 -13 -24 -6 -3 5 1 9 9 9 8 0 15 -2 15 -3z
m570 -40 c0 -8 -19 -13 -24 -6 -3 5 1 9 9 9 8 0 15 -2 15 -3z m-70 -164 c0 -5
-2 -10 -4 -10 -3 0 -8 5 -11 10 -3 6 -1 10 4 10 6 0 11 -4 11 -10z m737 -5 c0
-8 -4 -12 -9 -9 -4 3 -8 9 -8 15 0 5 4 9 8 9 5 0 9 -7 9 -15z m236 -270 c-3
-9 -8 -14 -10 -11 -3 3 -2 9 2 15 9 16 15 13 8 -4z m57 -199 c0 -2 -8 -10 -17
-17 -16 -13 -17 -12 -4 4 13 16 21 21 21 13z m-2412 -31 c-3 -3 -9 2 -12 12
-6 14 -5 15 5 6 7 -7 10 -15 7 -18z m2397 -164 c3 -5 2 -12 -3 -15 -5 -3 -9 1
-9 9 0 17 3 19 12 6z m85 -171 c0 -5 -2 -10 -4 -10 -3 0 -8 5 -11 10 -3 6 -1
10 4 10 6 0 11 -4 11 -10z m238 -165 c-3 -3 -9 2 -12 12 -6 14 -5 15 5 6 7 -7
10 -15 7 -18z m-63 -53 c2 -17 8 -48 14 -69 31 -118 46 -506 27 -678 -4 -38
-9 -86 -11 -105 -7 -82 -45 -236 -94 -386 -67 -202 -77 -225 -152 -354 -7 -14
-15 -27 -16 -28 -7 -15 -493 285 -493 304 0 2 26 -9 58 -25 54 -27 158 -64
212 -76 14 -2 45 -9 70 -14 101 -22 104 -20 149 72 56 116 117 265 126 308 2
9 10 37 19 62 8 25 18 56 20 69 3 13 10 43 17 68 16 65 19 82 24 112 2 15 6
35 9 45 3 10 8 43 10 74 3 30 8 75 11 100 16 120 8 437 -15 533 -5 25 -5 35 1
29 6 -6 12 -24 14 -41z m85 -16 c0 -3 -4 -8 -10 -11 -5 -3 -10 -1 -10 4 0 6 5
11 10 11 6 0 10 -2 10 -4z m-195 -126 c3 -6 -1 -7 -9 -4 -18 7 -21 14 -7 14 6
0 13 -4 16 -10z m-151 -38 c3 -5 -1 -9 -9 -9 -8 0 -12 4 -9 9 3 4 7 8 9 8 2 0
6 -4 9 -8z m231 -2 c-3 -5 -12 -10 -18 -10 -7 0 -6 4 3 10 19 12 23 12 15 0z
m152 -135 c0 -8 -4 -12 -9 -9 -5 3 -6 10 -3 15 9 13 12 11 12 -6z m-367 -21
c0 -8 -19 -13 -24 -6 -3 5 1 9 9 9 8 0 15 -2 15 -3z m-13 -79 c0 -8 -4 -12 -9
-9 -5 3 -6 10 -3 15 9 13 12 11 12 -6z m403 -20 c0 -7 -30 -13 -34 -7 -3 4 4
9 15 9 10 1 19 0 19 -2z m-399 -102 c13 -16 12 -17 -3 -4 -10 7 -18 15 -18 17
0 8 8 3 21 -13z m393 -109 c3 -8 2 -12 -4 -9 -6 3 -10 10 -10 16 0 14 7 11 14
-7z m-439 -3 c3 -5 2 -12 -3 -15 -5 -3 -9 1 -9 9 0 17 3 19 12 6z m40 -10 c3
-5 2 -12 -3 -15 -5 -3 -9 1 -9 9 0 17 3 19 12 6z m366 -38 c13 -16 12 -17 -3
-4 -10 7 -18 15 -18 17 0 8 8 3 21 -13z m-801 -119 c0 -8 -19 -13 -24 -6 -3 5
1 9 9 9 8 0 15 -2 15 -3z m798 -29 c-3 -3 -9 2 -12 12 -6 14 -5 15 5 6 7 -7
10 -15 7 -18z m-1283 -95 c3 -5 1 -10 -4 -10 -6 0 -11 5 -11 10 0 6 2 10 4 10
3 0 8 -4 11 -10z m455 6 c0 -2 -8 -10 -17 -17 -16 -13 -17 -12 -4 4 13 16 21
21 21 13z m465 -35 c3 -5 2 -12 -3 -15 -5 -3 -9 1 -9 9 0 17 3 19 12 6z m-1
-169 c3 -5 -1 -9 -9 -9 -8 0 -12 4 -9 9 3 4 7 8 9 8 2 0 6 -4 9 -8z m32 -80
c-17 -16 -18 -16 -5 5 7 12 15 20 18 17 3 -2 -3 -12 -13 -22z m205 -75 c-10
-9 -11 -8 -5 6 3 10 9 15 12 12 3 -3 0 -11 -7 -18z m-51 -205 c0 -5 -7 -9 -15
-9 -8 0 -12 4 -9 9 3 4 9 8 15 8 5 0 9 -4 9 -8z"/>
<path d="M3139 6842 c-13 -15 -64 -75 -114 -132 -49 -58 -92 -107 -95 -110 -3
-3 -43 -50 -90 -105 -47 -55 -87 -102 -90 -105 -3 -3 -52 -61 -110 -130 -58
-69 -112 -132 -120 -141 -8 -9 -40 -44 -70 -79 -30 -35 -60 -69 -67 -75 -12
-13 60 -88 257 -271 41 -38 77 -71 80 -74 15 -15 193 -171 239 -210 30 -25 59
-50 65 -55 6 -6 49 -42 96 -80 47 -38 87 -72 90 -75 3 -4 61 -51 130 -106 68
-54 131 -104 140 -111 34 -27 161 -119 250 -181 52 -37 97 -70 98 -74 2 -4 8
-8 12 -8 5 0 47 -24 92 -53 46 -30 110 -69 143 -87 33 -18 78 -44 100 -57 56
-33 305 -154 395 -192 41 -18 89 -38 105 -46 58 -25 251 -85 322 -100 198 -41
399 -39 558 5 66 18 149 54 169 73 11 9 24 17 29 17 41 0 247 216 247 259 0 6
4 11 9 11 14 0 82 169 92 230 9 56 12 188 5 270 -21 238 -184 481 -386 573
-38 17 -92 38 -100 39 -3 0 -15 4 -28 9 -111 42 -327 14 -480 -63 -181 -91
-270 -355 -183 -542 55 -115 178 -210 312 -238 109 -23 225 30 280 127 26 46
35 154 16 189 -42 74 -69 86 -63 26 1 -14 -4 -43 -11 -65 -31 -91 -118 -128
-230 -96 -154 43 -183 253 -55 389 78 83 209 111 337 71 88 -27 129 -52 196
-118 87 -88 136 -191 144 -306 2 -30 7 -60 10 -65 3 -6 2 -10 -3 -10 -5 0 -8
-10 -7 -22 4 -51 -56 -228 -77 -228 -5 0 -8 -6 -8 -13 0 -21 -139 -157 -161
-157 -5 0 -9 -4 -9 -8 0 -7 -25 -19 -105 -49 -68 -25 -86 -28 -215 -27 -114 0
-133 3 -218 32 -51 18 -108 41 -127 52 -19 11 -52 29 -72 41 -44 24 -162 110
-213 154 -217 188 -669 768 -919 1180 -23 39 -46 77 -51 85 -5 8 -29 49 -53
90 -38 64 -73 124 -177 305 -10 17 -46 77 -80 135 -34 58 -71 121 -82 140 -60
107 -112 190 -118 190 -4 0 -18 -12 -31 -28z m-135 -354 c-15 -26 -97 -154
-115 -180 -11 -15 -19 -30 -19 -32 0 -7 -74 -120 -144 -221 -31 -44 -56 -84
-56 -88 0 -9 62 -87 153 -192 75 -87 336 -347 437 -436 127 -112 233 -203 290
-249 30 -25 57 -47 60 -50 6 -6 111 -92 125 -102 6 -4 26 -20 45 -36 31 -25
111 -85 181 -135 109 -78 49 -47 -87 46 -58 40 -116 79 -128 87 -26 18 -199
152 -206 160 -3 3 -36 30 -75 60 -38 30 -75 59 -81 65 -7 5 -20 17 -31 25 -37
30 -128 105 -139 115 -6 5 -37 33 -69 60 -54 47 -166 152 -295 275 -31 30 -90
84 -131 120 -103 91 -179 166 -179 176 0 8 160 199 179 214 3 3 28 32 56 65
27 33 54 65 60 71 26 28 132 149 149 170 21 26 32 32 20 12z m2800 -1006 c3
-5 -1 -9 -9 -9 -8 0 -12 4 -9 9 3 4 7 8 9 8 2 0 6 -4 9 -8z m-674 -66 c0 -2
-8 -10 -17 -17 -16 -13 -17 -12 -4 4 13 16 21 21 21 13z m753 -31 c-3 -9 -8
-14 -10 -11 -3 3 -2 9 2 15 9 16 15 13 8 -4z m27 -139 c0 -2 -7 -7 -16 -10 -8
-3 -12 -2 -9 4 6 10 25 14 25 6z m50 -41 c-7 -8 -17 -15 -23 -15 -6 0 -2 7 9
15 25 19 30 19 14 0z m10 -65 c0 -5 -2 -10 -4 -10 -3 0 -8 5 -11 10 -3 6 -1
10 4 10 6 0 11 -4 11 -10z m80 6 c0 -3 -4 -8 -10 -11 -5 -3 -10 -1 -10 4 0 6
5 11 10 11 6 0 10 -2 10 -4z m-85 -46 c3 -5 1 -10 -4 -10 -6 0 -11 5 -11 10 0
6 2 10 4 10 3 0 8 -4 11 -10z m45 0 c0 -5 -5 -10 -11 -10 -5 0 -7 5 -4 10 3 6
8 10 11 10 2 0 4 -4 4 -10z m0 -84 c0 -2 -8 -10 -17 -17 -16 -13 -17 -12 -4 4
13 16 21 21 21 13z m41 -53 c13 -16 12 -17 -3 -4 -10 7 -18 15 -18 17 0 8 8 3
21 -13z m-90 -10 c13 -16 12 -17 -3 -4 -10 7 -18 15 -18 17 0 8 8 3 21 -13z
m47 -118 c-3 -3 -9 2 -12 12 -6 14 -5 15 5 6 7 -7 10 -15 7 -18z m-48 9 c0 -8
-19 -13 -24 -6 -3 5 1 9 9 9 8 0 15 -2 15 -3z m-30 -64 c0 -5 -5 -10 -11 -10
-5 0 -7 5 -4 10 3 6 8 10 11 10 2 0 4 -4 4 -10z m-5 -217 c-36 -56 -101 -130
-151 -172 -45 -38 -173 -109 -216 -119 -105 -27 -186 -38 -272 -35 -112 2
-142 12 -45 14 107 2 173 6 189 12 8 3 40 11 70 17 61 14 199 77 244 112 66
52 130 116 158 156 32 46 51 59 23 15z m-265 -77 c0 -2 -8 -10 -17 -17 -16
-13 -17 -12 -4 4 13 16 21 21 21 13z m-493 -232 c-3 -3 -12 -4 -19 -1 -8 3 -5
6 6 6 11 1 17 -2 13 -5z"/>
<path d="M6700 6539 c-45 -37 -163 -143 -197 -177 l-33 -33 52 -59 c28 -33 57
-61 62 -63 6 -2 23 8 39 22 l27 26 -30 37 -31 37 28 25 c81 71 98 84 106 79 7
-4 70 -97 139 -205 l17 -26 -57 -39 c-56 -38 -209 -149 -226 -164 -11 -10 48
-103 141 -222 40 -50 73 -101 73 -113 0 -22 51 -131 82 -176 11 -16 17 -28 14
-28 -5 0 12 -30 51 -89 1 -2 23 4 49 13 66 22 65 14 -1 -13 -30 -13 -55 -25
-55 -28 0 -9 90 -244 107 -280 l15 -32 36 16 c64 28 76 32 130 47 43 12 54 13
58 2 4 -10 13 -10 40 -2 31 10 34 14 31 41 -12 82 -65 245 -80 245 -7 -1 -30
-7 -52 -15 -57 -21 -57 -19 5 16 30 18 56 33 58 34 12 10 -99 290 -127 318 -5
5 -159 -65 -239 -109 -2 -1 9 -26 23 -56 32 -62 20 -54 -20 15 l-27 47 38 17
c22 9 41 17 44 18 3 0 32 16 65 35 33 19 74 42 90 51 17 9 31 23 33 32 4 21
-156 337 -174 344 -14 5 -176 -91 -182 -108 -2 -5 -8 -9 -13 -9 -6 0 -21 -10
-34 -22 l-24 -23 40 -60 c21 -33 43 -61 47 -62 4 -2 18 6 31 16 23 17 23 21
11 50 -12 29 -11 34 8 51 12 11 24 20 27 20 4 0 13 7 21 15 26 25 38 17 69
-48 16 -34 40 -78 52 -99 24 -40 23 -43 -32 -70 -16 -8 -48 -24 -70 -35 -22
-12 -58 -29 -80 -39 -22 -9 -43 -19 -47 -21 -5 -2 -8 -2 -8 1 0 3 42 30 94 60
51 31 104 64 116 74 l24 19 -44 64 c-24 35 -48 67 -53 71 -5 3 -19 -3 -30 -13
-12 -10 -24 -19 -29 -19 -16 0 -8 -37 14 -60 21 -22 21 -24 4 -34 -10 -6 -33
-21 -51 -33 -39 -25 -33 -30 -109 85 -27 40 -45 77 -40 81 5 4 34 25 64 47 30
21 61 44 68 51 7 7 17 13 21 13 4 0 21 11 37 25 16 14 32 25 36 25 14 0 35 57
27 77 -6 17 -83 139 -106 168 -5 6 -35 47 -67 93 -33 45 -62 82 -65 82 -3 -1
-17 -10 -31 -21z m449 -941 c10 -30 9 -31 -4 -14 -8 11 -15 24 -15 29 0 4 -18
-2 -40 -14 -22 -12 -43 -20 -46 -16 -6 6 70 46 88 47 3 0 11 -15 17 -32z m-78
-84 c0 -4 -17 -15 -39 -24 -37 -17 -39 -17 -51 1 -10 17 -9 19 11 14 14 -3 33
2 48 14 22 18 32 16 31 -5z m98 -72 c-19 -8 -42 -18 -51 -23 -10 -5 -18 -6
-18 -1 0 12 83 51 94 44 5 -3 -6 -12 -25 -20z m-79 -32 c0 -5 -5 -10 -11 -10
-5 0 -7 5 -4 10 3 6 8 10 11 10 2 0 4 -4 4 -10z m0 -100 c-8 -5 -19 -10 -25
-10 -5 0 -3 5 5 10 8 5 20 10 25 10 6 0 3 -5 -5 -10z m140 -34 c0 -3 -14 -11
-31 -20 -20 -10 -29 -11 -26 -3 2 6 14 14 28 18 13 4 25 7 27 8 1 1 2 -1 2 -3z
m-45 -106 c-3 -5 -11 -10 -16 -10 -6 0 -7 5 -4 10 3 6 11 10 16 10 6 0 7 -4 4
-10z m-40 -10 c-3 -5 -14 -10 -23 -9 -14 0 -13 2 3 9 27 11 27 11 20 0z"/>
<path d="M2340 5802 c-8 -42 -14 -86 -15 -97 -1 -11 -5 -33 -8 -50 -4 -16 -9
-43 -12 -60 -3 -16 -7 -41 -10 -55 -3 -14 -8 -41 -11 -60 -3 -19 -10 -55 -16
-80 -15 -69 -17 -79 -33 -170 -8 -47 -17 -95 -19 -106 -2 -12 -7 -39 -10 -60
-4 -22 -8 -46 -11 -54 -2 -8 -6 -33 -10 -54 -3 -21 -7 -48 -10 -60 -2 -12 -7
-37 -10 -56 -2 -19 -7 -46 -10 -60 -3 -14 -7 -38 -10 -55 -2 -16 -6 -39 -8
-50 -3 -11 -12 -58 -21 -105 -9 -47 -18 -96 -21 -110 -3 -14 -7 -36 -10 -50
-2 -14 -13 -69 -24 -122 -11 -53 -23 -118 -27 -145 -3 -26 -8 -50 -9 -53 -2
-3 -6 -24 -9 -46 -4 -22 -9 -51 -11 -64 -3 -14 -8 -38 -10 -55 -3 -16 -10 -55
-15 -85 -6 -30 -13 -68 -15 -85 -3 -16 -12 -64 -20 -105 -8 -41 -17 -91 -20
-110 -3 -19 -8 -46 -10 -60 -3 -14 -7 -36 -10 -50 -56 -297 -70 -405 -54 -416
11 -6 55 38 108 109 104 137 233 501 266 746 2 19 9 58 15 86 6 28 13 64 16
80 3 16 7 32 9 35 2 4 7 22 10 41 18 104 42 150 114 217 47 44 113 77 199 101
58 16 96 19 204 16 73 -1 144 -5 158 -8 14 -3 45 -8 70 -12 88 -13 107 -17
255 -51 83 -19 165 -37 184 -40 19 -3 45 -10 58 -15 13 -5 38 -11 56 -14 18
-3 50 -11 72 -16 143 -38 253 -42 296 -10 15 12 30 17 34 12 17 -28 -62 -233
-106 -274 -10 -10 -19 -22 -19 -26 0 -18 -148 -153 -220 -201 -71 -47 -204
-107 -260 -116 -14 -3 -31 -7 -39 -10 -46 -16 -199 -22 -276 -10 -22 4 -51 8
-65 10 -38 6 -207 65 -275 96 -33 15 -79 46 -102 68 -48 48 -82 59 -123 42
-40 -17 -61 -82 -75 -239 -3 -36 -7 -67 -9 -70 -2 -3 -7 -26 -10 -51 -6 -43
-9 -62 -21 -120 -2 -14 -7 -41 -10 -60 -6 -40 -16 -95 -21 -125 -3 -11 -6 -33
-9 -50 -3 -16 -10 -50 -15 -75 -5 -25 -14 -72 -20 -105 -5 -33 -12 -71 -15
-85 -3 -14 -9 -50 -15 -80 -6 -30 -12 -65 -14 -76 -2 -12 -7 -37 -10 -55 -3
-19 -19 -108 -36 -199 -17 -91 -32 -178 -35 -195 -2 -16 -13 -82 -24 -145 -11
-63 -29 -167 -40 -230 -11 -63 -23 -131 -26 -150 -4 -19 -8 -46 -10 -60 -2
-14 -8 -50 -14 -80 -6 -30 -13 -71 -16 -90 -3 -19 -12 -71 -20 -115 -8 -44
-17 -96 -20 -115 -3 -19 -12 -71 -20 -115 -8 -44 -17 -96 -21 -115 -3 -19 -10
-60 -15 -90 -10 -56 -16 -89 -23 -137 -3 -16 -9 -51 -15 -79 -5 -28 -12 -71
-15 -95 -3 -24 -8 -53 -10 -64 -2 -11 -7 -42 -10 -68 -4 -27 -9 -57 -11 -67
-2 -9 -6 -35 -10 -56 -12 -79 -16 -101 -37 -179 -11 -44 -23 -115 -27 -157 -6
-69 -5 -78 10 -78 9 0 59 52 112 117 52 65 104 129 116 143 13 14 50 56 84 95
162 183 536 541 752 719 33 28 62 53 65 56 3 3 25 21 50 40 25 19 47 37 50 40
9 11 194 154 250 195 30 22 60 45 65 51 19 22 357 256 447 309 119 71 415 225
433 225 6 0 100 44 275 128 177 85 236 136 299 262 75 147 86 250 65 605 -13
226 -11 493 5 550 21 77 70 163 114 200 36 31 93 63 121 70 6 1 22 7 36 12 48
20 160 13 215 -13 51 -24 135 -105 135 -130 0 -8 4 -14 8 -14 24 0 43 -176 28
-260 -16 -88 -30 -153 -57 -254 -15 -60 -28 -111 -27 -115 1 -3 -1 -13 -5 -21
-9 -23 -44 -189 -52 -243 -2 -12 -6 -42 -10 -67 -12 -79 -7 -223 9 -290 35
-147 109 -292 182 -358 122 -112 464 -314 694 -411 41 -18 84 -36 95 -41 49
-21 155 -59 210 -75 33 -9 78 -22 100 -29 22 -7 50 -11 63 -10 12 1 22 -2 22
-7 0 -4 12 -5 28 -2 15 3 34 5 42 5 8 0 22 2 30 5 8 4 18 7 22 7 3 1 20 11 37
24 24 17 31 30 31 56 0 54 -21 63 -83 38 -29 -12 -61 -22 -72 -22 -51 0 -229
145 -265 216 -8 16 -22 41 -32 55 -49 74 -138 282 -152 355 -2 16 -8 40 -11
54 -24 102 -33 190 -30 305 4 173 14 210 90 329 45 71 63 92 144 170 35 33 70
67 78 75 8 7 13 15 11 16 -2 2 -43 24 -93 50 -49 26 -97 54 -106 61 -8 8 -18
14 -22 14 -11 0 -313 194 -327 210 -3 3 -21 17 -40 30 -129 88 -323 265 -416
380 -16 19 -33 40 -39 47 -12 13 -49 61 -86 111 l-27 36 -158 2 c-88 1 -181 5
-209 8 -27 4 -66 9 -85 12 -19 2 -56 9 -81 15 -26 6 -55 12 -65 14 -11 2 -19
4 -19 5 0 1 -8 3 -17 5 -27 5 -179 55 -213 70 -16 7 -66 28 -110 46 -124 51
-360 172 -502 257 -71 42 -229 147 -231 154 -2 4 -8 8 -13 8 -7 0 -314 227
-393 291 -16 13 -65 53 -110 89 -45 36 -83 67 -86 70 -3 3 -48 41 -100 85 -52
44 -97 82 -100 85 -3 3 -25 23 -50 44 -73 63 -199 177 -264 237 -34 31 -77 71
-96 89 -19 17 -69 64 -110 104 -41 40 -80 75 -86 79 -8 4 -16 -19 -24 -71z
m13 -939 c-1 -71 2 -138 7 -150 l9 -22 55 19 c43 15 76 18 163 15 59 -2 119
-6 133 -8 93 -18 198 -49 449 -133 157 -53 293 -97 301 -99 8 -3 49 -14 90
-25 110 -31 126 -33 233 -33 56 -1 97 -5 97 -11 0 -5 -2 -7 -6 -4 -3 3 -24 0
-47 -7 -85 -25 -217 -17 -372 22 -33 8 -67 16 -75 18 -8 2 -73 20 -145 40
-194 53 -222 57 -428 59 -225 3 -309 -21 -437 -123 -25 -20 -48 -40 -52 -46
-11 -14 -26 12 -33 55 -3 19 -9 51 -13 70 -12 57 -6 202 12 285 13 61 56 205
61 205 0 0 0 -57 -2 -127z m1774 -828 c0 -8 -4 -12 -9 -9 -5 3 -6 10 -3 15 9
13 12 11 12 -6z m1163 -19 c0 -2 -8 -10 -17 -17 -16 -13 -17 -12 -4 4 13 16
21 21 21 13z m160 -52 c0 -8 -19 -13 -24 -6 -3 5 1 9 9 9 8 0 15 -2 15 -3z
m-645 -212 c-3 -3 -11 0 -18 7 -9 10 -8 11 6 5 10 -3 15 -9 12 -12z m800 -72
c3 -5 1 -10 -4 -10 -6 0 -11 5 -11 10 0 6 2 10 4 10 3 0 8 -4 11 -10z m129
-62 c33 -29 63 -55 66 -59 16 -17 281 -209 289 -209 6 0 11 -4 11 -10 0 -5 5
-10 10 -10 12 0 73 -41 78 -52 2 -5 7 -8 12 -8 5 0 45 -22 90 -50 45 -27 86
-50 91 -50 5 0 9 -5 9 -11 0 -5 5 -7 10 -4 26 16 5 -25 -33 -65 -55 -59 -110
-137 -127 -178 -16 -41 -32 -52 -25 -18 3 14 7 37 10 50 3 14 21 66 40 117 43
110 36 129 -27 71 -39 -36 -108 -150 -108 -179 0 -6 -4 -14 -9 -17 -23 -14 23
155 59 219 25 44 25 65 2 65 -28 0 -132 -120 -132 -153 0 -7 -5 -18 -11 -24
-10 -10 -17 -32 -18 -61 -1 -7 -5 -11 -10 -8 -11 7 22 163 37 178 7 7 12 20
12 30 0 10 4 18 8 18 11 0 32 59 23 64 -36 23 -128 -92 -167 -208 l-13 -41 3
60 c4 65 34 165 66 217 11 18 20 36 20 41 0 12 -30 8 -43 -5 -37 -39 -87 -109
-106 -150 -13 -27 -24 -48 -26 -48 -2 0 -2 21 1 48 6 51 28 119 55 169 15 26
16 33 4 43 -18 15 -74 -44 -121 -127 -35 -62 -50 -79 -40 -45 3 9 7 29 10 45
8 46 16 70 43 130 20 42 24 60 16 68 -9 9 -19 4 -40 -17 -47 -50 -70 -80 -98
-131 -35 -63 -37 -64 -30 -17 10 67 13 77 36 139 26 71 30 134 13 193 -7 23
-10 42 -7 42 3 0 33 -24 67 -52z m-1000 -16 c3 -5 -1 -9 -9 -9 -8 0 -12 4 -9
9 3 4 7 8 9 8 2 0 6 -4 9 -8z m-594 -118 c0 -8 -19 -13 -24 -6 -3 5 1 9 9 9 8
0 15 -2 15 -3z m1865 -12 c-3 -3 -11 0 -18 7 -9 10 -8 11 6 5 10 -3 15 -9 12
-12z m-1871 -230 c3 -5 -1 -9 -9 -9 -8 0 -12 4 -9 9 3 4 7 8 9 8 2 0 6 -4 9
-8z m671 -62 c3 -5 1 -10 -4 -10 -6 0 -11 5 -11 10 0 6 2 10 4 10 3 0 8 -4 11
-10z m-71 -58 c3 -5 -1 -9 -9 -9 -8 0 -12 4 -9 9 3 4 7 8 9 8 2 0 6 -4 9 -8z
m-2307 -114 c-3 -8 -6 -5 -6 6 -1 11 2 17 5 13 3 -3 4 -12 1 -19z m0 -25 c-3
-5 -8 -39 -12 -76 -3 -37 -8 -76 -10 -87 -2 -10 -6 -54 -10 -97 -3 -43 -8 -89
-10 -103 -2 -14 -6 -54 -10 -90 -3 -36 -8 -81 -10 -100 -2 -19 -6 -66 -9 -105
-4 -38 -11 -115 -16 -170 -5 -55 -12 -127 -15 -160 -3 -33 -10 -103 -15 -155
-14 -130 -20 -197 -25 -251 -2 -25 -6 -64 -9 -87 -3 -23 -8 -61 -11 -84 -10
-78 -15 -114 -20 -138 -3 -14 -8 -38 -10 -55 -7 -39 -24 -138 -29 -168 -6 -35
9 -55 31 -41 35 22 114 211 128 308 5 30 11 43 16 35 4 -7 6 -16 4 -19 -2 -3
-6 -31 -9 -63 -3 -31 -8 -71 -11 -89 -3 -18 -1 -40 4 -48 8 -12 12 -12 28 2
36 33 107 194 112 253 0 8 6 15 11 15 6 0 8 -25 4 -67 -9 -103 -8 -113 11
-113 23 0 56 63 121 235 9 24 10 33 12 63 1 12 6 22 11 22 4 0 7 -12 5 -27
-11 -84 -14 -182 -5 -187 5 -3 16 -3 24 0 18 6 79 143 103 229 31 110 32 113
29 50 -2 -33 -4 -60 -5 -60 -2 0 -9 -54 -13 -100 -3 -47 24 -37 55 20 27 50
64 145 92 240 l15 50 -4 -75 c-3 -41 -7 -84 -9 -95 -19 -85 -19 -85 1 -85 15
0 30 24 65 98 48 101 59 128 64 151 1 7 7 18 11 22 11 11 5 -94 -7 -141 -14
-48 -12 -60 5 -60 29 0 100 138 134 260 l9 35 1 -40 c0 -22 -6 -67 -14 -100
-19 -79 -19 -85 5 -85 11 0 20 4 20 10 0 9 66 108 80 120 7 6 36 85 43 115 3
15 5 13 6 -7 0 -16 -8 -55 -20 -88 -11 -33 -18 -64 -14 -70 7 -12 35 -14 35
-2 0 4 11 19 24 33 21 23 59 85 61 99 1 13 28 70 31 67 2 -2 -1 -19 -6 -38
-22 -74 -22 -89 0 -89 34 0 106 117 124 203 4 15 11 27 17 27 6 0 8 -3 6 -7
-3 -5 -8 -25 -11 -46 -3 -21 -15 -55 -26 -77 -24 -47 -24 -46 -5 -53 22 -9 85
60 117 128 23 50 27 54 22 25 -6 -37 -8 -56 -5 -78 2 -22 55 16 70 49 7 16 17
27 22 23 5 -3 7 -9 4 -14 -3 -4 2 -10 10 -14 24 -9 81 49 115 116 34 70 40 63
10 -13 -16 -40 -18 -54 -9 -60 15 -9 88 40 89 59 0 16 8 15 26 -3 13 -13 10
-17 -33 -37 -26 -13 -49 -26 -51 -30 -2 -5 -9 -8 -15 -8 -7 0 -79 -38 -162
-83 -184 -102 -199 -111 -205 -117 -3 -3 -25 -16 -50 -30 -25 -13 -49 -28 -55
-32 -5 -4 -91 -62 -191 -128 -198 -131 -394 -284 -564 -440 -255 -234 -534
-508 -693 -680 l-88 -95 6 50 c4 28 9 52 10 55 2 3 6 24 9 46 4 22 8 51 11 64
7 38 24 131 30 170 3 19 10 58 15 85 5 28 12 65 15 83 11 67 16 99 30 177 8
44 17 98 21 120 3 22 9 56 14 75 5 19 11 55 14 80 3 25 9 57 15 72 5 14 8 28
6 30 -2 2 5 52 15 111 11 60 22 129 26 155 3 26 8 50 10 54 2 3 7 28 10 55 3
26 7 55 9 63 4 14 10 45 20 115 2 17 7 44 10 60 3 17 7 44 10 60 3 17 7 41 10
55 3 14 8 41 10 60 2 19 7 46 10 60 3 14 8 41 10 60 12 78 15 96 20 120 3 14
8 41 11 60 3 19 12 71 20 115 8 44 21 123 30 175 17 106 21 120 29 120 4 0 4
-3 2 -7z m3183 -103 c0 -5 -2 -10 -4 -10 -3 0 -8 5 -11 10 -3 6 -1 10 4 10 6
0 11 -4 11 -10z m201 -77 c13 -16 12 -17 -3 -4 -10 7 -18 15 -18 17 0 8 8 3
21 -13z m-289 -273 c46 -191 151 -382 135 -245 -3 25 -9 50 -12 56 -4 5 -8 20
-10 32 -1 12 -6 42 -9 67 -12 78 -13 100 -5 94 5 -3 9 -15 9 -28 0 -24 79
-240 107 -293 32 -60 49 -37 33 44 -6 32 -14 72 -16 88 -3 17 -7 35 -9 42 -2
7 1 15 8 19 7 4 9 4 5 0 -13 -15 86 -265 111 -280 14 -9 24 30 13 51 -5 10
-12 38 -16 63 -18 127 -18 132 -7 126 6 -4 11 -15 11 -24 1 -34 68 -215 96
-258 27 -40 37 -14 20 47 -9 30 -18 92 -20 139 l-5 85 15 -50 c44 -156 104
-305 123 -305 19 0 20 17 6 84 -26 122 -37 216 -26 216 3 0 14 -35 24 -77 10
-43 23 -89 29 -103 6 -14 13 -33 14 -43 8 -38 71 -152 85 -152 8 0 12 7 10 15
-7 30 -9 46 -15 95 -12 112 -14 155 -5 155 5 0 8 -3 7 -7 -3 -14 25 -124 34
-129 4 -3 8 -12 8 -20 0 -21 88 -203 116 -240 13 -17 20 -34 17 -38 -4 -3 -1
-6 5 -6 7 0 12 -5 12 -10 0 -6 -12 -4 -29 4 -16 9 -31 12 -35 9 -3 -4 -6 -2
-6 3 0 5 -20 16 -45 23 -25 7 -45 17 -45 22 0 5 -8 9 -18 9 -10 0 -23 5 -29
11 -6 6 -17 11 -24 13 -24 4 -295 145 -341 177 -14 11 -31 19 -37 19 -6 0 -11
5 -11 10 0 6 -7 10 -15 10 -8 0 -15 5 -15 10 0 6 -4 10 -10 10 -22 0 -143 111
-178 164 -59 88 -78 152 -85 294 -3 66 4 110 11 65 1 -10 8 -38 14 -63z
m-1382 -6 c0 -8 -19 -13 -24 -6 -3 5 1 9 9 9 8 0 15 -2 15 -3z m2030 -38 c0
-3 -4 -8 -10 -11 -5 -3 -10 -1 -10 4 0 6 5 11 10 11 6 0 10 -2 10 -4z m-9
-173 c13 -16 12 -17 -3 -4 -10 7 -18 15 -18 17 0 8 8 3 21 -13z m-1891 -173
c0 -5 -5 -10 -11 -10 -5 0 -7 5 -4 10 3 6 8 10 11 10 2 0 4 -4 4 -10z m-86
-25 c4 -10 -7 -21 -34 -35 -54 -27 -56 -25 -12 15 44 41 39 38 46 20z m2141
-63 c-3 -3 -11 0 -18 7 -9 10 -8 11 6 5 10 -3 15 -9 12 -12z m-3795 -612 c0
-11 -4 -20 -9 -20 -5 0 -7 9 -4 20 3 11 7 20 9 20 2 0 4 -9 4 -20z"/>
</g>
</svg>
