<?xml version="1.0" encoding="utf-8"?>
<!-- Generator: Adobe Illustrator 21.0.2, SVG Export Plug-In . SVG Version: 6.00 Build 0)  -->
<!DOCTYPE svg PUBLIC "-//W3C//DTD SVG 1.1//EN" "http://www.w3.org/Graphics/SVG/1.1/DTD/svg11.dtd">
<svg version="1.1" id="Layer_1" xmlns="http://www.w3.org/2000/svg" xmlns:xlink="http://www.w3.org/1999/xlink" x="0px" y="0px"
	 viewBox="0 0 16.6 20.3" style="enable-background:new 0 0 16.6 20.3;" xml:space="preserve">
<style type="text/css">
	.st0{fill:#FFFFFF;}
</style>
<path class="st0" d="M13.2,7.6c0.3-0.7,0.5-1.4,0.5-2.3c0-3-2.4-5.4-5.4-5.4S2.9,2.4,2.9,5.4c0,0.8,0.2,1.6,0.5,2.3
	C1.5,8.1,0,9.8,0,12v6.6c0,1,0.8,1.8,1.8,1.8H15c0.9,0,1.6-0.7,1.6-1.6V12C16.6,9.8,15.1,8.1,13.2,7.6z M8.3,1c2.4,0,4.4,2,4.4,4.4
	s-2,4.4-4.4,4.4C5.9,9.7,4,7.8,4,5.4S5.9,1,8.3,1z M15.6,18.7c0,0.3-0.3,0.6-0.6,0.6H1.8C1.4,19.3,1,19,1,18.5V12
	c0-1.7,1.3-3.2,3-3.4c1,1.3,2.5,2.2,4.3,2.2s3.3-0.9,4.3-2.2c1.7,0.2,3,1.7,3,3.4V18.7z"/>
</svg>
