<?xml version="1.0" encoding="utf-8"?>
<!-- Generator: Adobe Illustrator 24.0.2, SVG Export Plug-In . SVG Version: 6.00 Build 0)  -->
<svg version="1.1" id="Layer_1" xmlns="http://www.w3.org/2000/svg" xmlns:xlink="http://www.w3.org/1999/xlink" x="0px" y="0px"
	 viewBox="0 0 1003 294" enable-background="new 0 0 1003 294" xml:space="preserve">
<path id="legion" fill="none" stroke="#000000" stroke-width="3" stroke-miterlimit="10" d="M33.9,227.9H1.5V1.5h32.4V227.9z
	 M259.8,98.5H65.5V66.1h194.3V98.5z M259.8,163.4H65.5v-32.4h194.3V163.4z M259.8,227.9H65.5v-32.4h194.3V227.9z M485.7,292.5H291.4
	v-32.4h161.9v-32.2H291.4V66.1h194.3V292.5z M453.3,195.5v-97H323.8v97H453.3z M549.7,227.9h-32.4V66.4h32.4V227.9z M775.6,227.9
	H581.3V66.1h194.3V227.9z M743.2,195.5v-97H613.8v97H743.2z M839.6,227.9h-32.4V66.1h194.3v161.9h-32.4V98.5H839.6V227.9z"/>
</svg>
