<svg xmlns="http://www.w3.org/2000/svg" xmlns:xlink="http://www.w3.org/1999/xlink"><symbol id="icon-account" viewBox="0 0 16.6 20.3"><path d="M13.2 7.6c.3-.7.5-1.4.5-2.3 0-3-2.4-5.4-5.4-5.4S2.9 2.4 2.9 5.4c0 .8.2 1.6.5 2.3C1.5 8.1 0 9.8 0 12v6.6c0 1 .8 1.8 1.8 1.8H15c.9 0 1.6-.7 1.6-1.6V12c0-2.2-1.5-3.9-3.4-4.4zM8.3 1c2.4 0 4.4 2 4.4 4.4s-2 4.4-4.4 4.4C5.9 9.7 4 7.8 4 5.4S5.9 1 8.3 1zm7.3 17.7c0 .3-.3.6-.6.6H1.8c-.4 0-.8-.3-.8-.8V12c0-1.7 1.3-3.2 3-3.4 1 1.3 2.5 2.2 4.3 2.2s3.3-.9 4.3-2.2c1.7.2 3 1.7 3 3.4v6.7z"/></symbol><symbol id="icon-bag" viewBox="0 0 17.1 18.4"><path d="M14.5 4.4V0H2.6v4.4H0v14h17.1v-14h-2.6zM3.6 1h9.8v3.4H3.6V1zm12.5 16.4H1v-12h15.1v12z"/></symbol><symbol id="icon-caret" viewBox="0 0 24 24"><path d="M3.719 7.781L2.28 9.22l9 9 .719.687.719-.687 9-9-1.438-1.44L12 16.063 3.719 7.78z"/></symbol><symbol id="icon-github" viewBox="0 0 512 512"><path d="M256 0C115.3 0 0 116.3 0 257c0 139.883 114.25 255 256 255 141.574 0 256-114.945 256-255C512 116.3 396.7 0 256 0zm45 477.5c-14.398 3-29.7 4.5-45 4.5s-30.602-1.5-45-4.5v-70.2c0-16.8 4.5-22.8 10.5-30.902 3.055-3.492 4.898-6.625 18.598-27.296L217 345.5c-59.402-8.7-82.8-39.602-92.102-63.602-12-32.097-5.699-72.3 15.903-97.796 3.3-3.903 6-10.504 3.601-17.403-4.504-13.8-3.902-35.699-.902-44.101 15.906 2.273 32.262 13.668 45.902 21.902 6.286 3.668 9.582 2.7 12.598 3 10.96-2.281 28.059-7.8 54.3-7.8 16.2 0 33.302 2.398 50.102 7.198 3.004-.07 7.832 2.485 16.2-2.398 14.257-8.687 30.058-19.691 45.898-21.902 3 8.402 3.602 30.3-.898 44.101-2.403 6.899.296 13.5 3.601 17.403 21.598 25.5 27.899 65.699 15.899 97.796-9.301 24-32.7 54.903-92.102 63.602l-23.098 3.602c14.16 21.367 15.653 23.93 18.602 27.296C296.5 384.5 301 390.5 301 407.301zm30-8.7v-61.5c0-17.1-3.602-28.5-8.402-36.902 45.601-12.296 78.004-39.3 92.402-78 15.3-40.796 8.402-89.398-17.102-123 4.504-20.097 4.504-52.199-6.296-67.199C386.8 95.602 380.199 92 371.8 92h-.301c-23.262 1.258-41.57 12.973-61.2 24.898-18-4.8-36.3-7.199-54.6-7.199-18.598 0-37.2 2.7-53.696 7.2C181.34 104.437 163.207 93.226 139.3 92c-7.5 0-14.102 3.602-18.903 10.2-10.796 15-10.796 47.1-6.296 67.198-25.504 33.602-32.403 82.5-17.102 123 14.398 38.7 46.8 65.704 92.402 78-3.722 6.512-6.668 14.915-7.828 26.286-9.21 3.175-17.199 4.21-24.629 2.027-7.836-2.316-13.941-7.547-19.246-16.469-11.914-20.015-32.207-36.355-55.312-34.23l2.636 29.883c10.7-.98 21.348 10.34 26.88 19.671 9.124 15.368 21.417 25.446 36.546 29.914 11.23 3.31 21.496 3.23 32.551.872V468.8C93.7 438.199 30 354.8 30 257 30 132.8 131.8 30 256 30s226 102.8 226 227c0 97.8-63.7 181.2-151 211.8zm0 0"/></symbol><symbol id="icon-instagram" viewBox="0 0 512 512"><path d="M75 512h362c41.355 0 75-33.645 75-75V75c0-41.355-33.645-75-75-75H75C33.645 0 0 33.645 0 75v362c0 41.355 33.645 75 75 75zM30 75c0-24.813 20.188-45 45-45h362c24.813 0 45 20.188 45 45v362c0 24.813-20.188 45-45 45H75c-24.813 0-45-20.188-45-45zm0 0"/><path d="M256 391c74.438 0 135-60.563 135-135s-60.563-135-135-135-135 60.563-135 135 60.563 135 135 135zm0-240c57.898 0 105 47.102 105 105s-47.102 105-105 105-105-47.102-105-105 47.102-105 105-105zm150 0c24.813 0 45-20.188 45-45s-20.188-45-45-45-45 20.188-45 45 20.188 45 45 45zm0-60c8.27 0 15 6.73 15 15s-6.73 15-15 15-15-6.73-15-15 6.73-15 15-15zm0 0"/></symbol><symbol id="icon-legion-logo" viewBox="0 0 1003 294"><path d="M33.9 227.9H1.5V1.5h32.4v226.4zM259.8 98.5H65.5V66.1h194.3v32.4zm0 64.9H65.5V131h194.3v32.4zm0 64.5H65.5v-32.4h194.3v32.4zm225.9 64.6H291.4v-32.4h161.9v-32.2H291.4V66.1h194.3v226.4zm-32.4-97v-97H323.8v97h129.5zm96.4 32.4h-32.4V66.4h32.4v161.5zm225.9 0H581.3V66.1h194.3v161.8zm-32.4-32.4v-97H613.8v97h129.4zm96.4 32.4h-32.4V66.1h194.3V228h-32.4V98.5H839.6v129.4z"/></symbol><symbol id="icon-mail" viewBox="0 0 50 50"><path d="M41.798 33.763v-18a.988.988 0 00-.887-.977l-.025-.005c-.03-.003-.057-.018-.088-.018h-30c-.032 0-.06.015-.091.018a.945.945 0 00-.189.038.941.941 0 00-.183.072.97.97 0 00-.147.099.986.986 0 00-.151.145c-.019.023-.045.035-.062.06-.019.027-.022.06-.038.088a.94.94 0 00-.119.383c-.003.033-.019.062-.019.096v18a1 1 0 001 1h30a.998.998 0 00.999-.999zm-4.296-17l-11.745 8.092-11.745-8.092h23.49zm-25.704 16V17.666l13.392 9.227a.997.997 0 001.134 0l13.474-9.283v15.153h-28z"/></symbol><symbol id="icon-search" viewBox="0 0 17.5 17"><path d="M17.5 16.3L11 10.1c.9-1.1 1.4-2.4 1.4-3.9C12.4 2.8 9.6 0 6.2 0 2.8 0 0 2.8 0 6.2s2.8 6.2 6.2 6.2c1.6 0 3-.6 4.1-1.6l6.5 6.2.7-.7zM6.2 11.4C3.3 11.4 1 9.1 1 6.2S3.3 1 6.2 1s5.2 2.3 5.2 5.2-2.3 5.2-5.2 5.2z"/></symbol><symbol id="icon-telegram" viewBox="1 -35 512 511"><path d="M121.453 253.172l63.555 158.887 82.75-82.754 141.535 112.504L512 .5 0 205.98zm-39.933-47.64l244.046-97.946-194.074 117.363zm287.535-89.25l-161.98 148.187-19.485 73.426-36.035-90.086zm-149.852 219.23l9.817-36.996 15.144 12.035zm171.656 53.394L243.473 271.754 465.375 68.746zm0 0"/></symbol><symbol id="icon-twitch" viewBox="0 0 512 512"><path d="M202.215 512l60-60h151L512 353.215V0H68.785L0 68.785V452h120v60zM30 422V81.215L81.215 30H482v310.785L400.785 422h-151l-60 60H150v-60zm0 0"/><path d="M181 443.215L262.215 362h121L452 293.215V60H90v302h91zM120 332V90h302v190.785L370.785 332h-121L211 370.785V332zm0 0"/><path d="M241 165h30v92h-30zm91 0h30v92h-30zm0 0"/></symbol><symbol id="icon-vk" viewBox="1 -104 512 511"><path d="M456.738 202.102l-.277-.258c-4.371-4.035-17.762-17.067-22.277-22.762-5.301-7.105-4.079-11.762-.106-18.738 5.02-8.817 15.078-22.34 25.723-36.66 34.094-45.852 56.105-77.594 51.574-100.141L508.934 11.5l-125.91.055c-.442 1.187-7.012 30.05-34.739 79.199-20.105 35.637-33.293 46.832-37.937 48.808l-.72-.218c-1.51-1.867-4.151-6.906-5.237-19.895-1.133-13.605-.13-30.078.843-46.008 1.137-18.68 2.118-34.812-.23-46.355L301.18 8.28c-4.621-.738-21.54-7.265-68.676-7.761-40.809-.418-52.797 5.476-58.684 10.671l-19.472 17.184 24.613 8.281c9.367 3.153 12.476 6.79 15.027 24.817 1.664 11.75 2.535 31.496.739 49.125-2.582 25.277-8.774 29.98-9.094 30.23-1.067-.363-10.11-4.32-25.809-37.512-10.89-23.02-20.437-50.25-27.414-70.132-7.984-22.77-6.547-17.922-10.598-28.68L0 4.5l7.883 20.39c32.863 85.09 63.015 151.54 103.367 199.266 44.582 52.73 99.988 80.34 174.621 80.34h15v-15c0-14.023 1.16-24.121 3.649-31.777 1.52-4.664 3.539-8.52 5.66-12.563 3.148-5.953 6.226-8.504 7.906-8.883 1.523-.347 4.203.77 7.172 2.985 8.523 6.355 15.289 14.707 22.453 23.55 10.336 12.762 21.023 25.954 37.98 34.59 9.266 4.72 26.25 7.102 35.598 7.102l90.711-.004-.645-15.617c-.96-23.352-19.34-52.55-54.617-86.777zm-34.867 72.394h-.242c-6.445.106-18.746-2.008-22.324-3.828-11.274-5.742-19.153-15.473-28.282-26.738-8.011-9.895-16.296-20.125-27.832-28.723-9.328-6.957-17.8-8.992-24.527-8.992-2.687 0-5.102.324-7.172.793-7.808 1.758-18.976 7.375-27.855 24.168-2.504 4.777-5.344 10.187-7.645 17.265-2.41 7.407-3.91 15.637-4.625 25.649-56.242-3.195-100.129-25.445-137.207-69.3-34.472-40.778-61.594-97.813-90.316-170.302l57.226.008c.942 2.645 1.957 5.543 3.035 8.613 7.52 21.45 17.82 50.82 29.957 75.868 17.38 35.867 33.25 51.863 51.458 51.863 9.09 0 17.242-3.852 23.574-11.145 9.027-10.394 14.27-27.55 16.027-52.453 1.387-19.637.098-39.195-1.426-49.972-1.257-8.868-3.05-18.176-7.425-26.516 18.644-.84 43.609.488 59.425 2.758 1.438 7.828.5 23.215-.406 38.101-2.191 35.961-4.453 73.07 14.582 90.434 3.348 3.055 6.899 4.691 7 4.758l9.688 2.972c3.738-1.152 25.39 9.832 66.39-61.718 13.137-22.926 25.367-49.344 31.953-66.598 15.274-.031 67.309.027 73.422.035-8.66 19.059-29.183 46.242-42.597 64.285-11.696 15.727-21.793 29.309-27.72 39.715-11.007 19.332-9.155 36.563 2.31 51.762l.18.234c6.398 8.145 22.198 23.223 25.476 26.262 23.742 23.05 35.183 39.61 40.629 50.738h-54.73zm0 0"/></symbol><symbol id="icon-youtube" viewBox="0 -61 512 512"><path d="M75 390h362c41.355 0 75-33.645 75-75V75c0-41.355-33.645-75-75-75H75C33.645 0 0 33.645 0 75v240c0 41.355 33.645 75 75 75zM30 75c0-24.813 20.188-45 45-45h362c24.813 0 45 20.188 45 45v240c0 24.813-20.188 45-45 45H75c-24.813 0-45-20.188-45-45zm0 0"/><path d="M181 94.508v203.898l180.5-103.62zm30 50.984l89.5 49.723-89.5 51.379zm0 0"/></symbol></svg>